<svg xmlns="http://www.w3.org/2000/svg" xmlns:xlink="http://www.w3.org/1999/xlink" width="18" height="18" viewBox="0 0 18 18">
  <defs>
    <clipPath id="clip-path">
      <rect id="Rectangle_16" data-name="Rectangle 16" width="18" height="18" transform="translate(30 105)" fill="#fff"/>
    </clipPath>
  </defs>
  <g id="Mask_Group_457" data-name="Mask Group 457" transform="translate(-30 -105)" clip-path="url(#clip-path)">
    <g id="statistics_1_" data-name="statistics (1)" transform="translate(30 105)">
      <path id="Path_4257" data-name="Path 4257" d="M2.672,8.438a1.574,1.574,0,0,0,1.1-.445l1.561.78a1.549,1.549,0,0,0-.019.192,1.582,1.582,0,1,0,3.164,0,1.563,1.563,0,0,0-.159-.678L10.432,6.17a1.563,1.563,0,0,0,.678.159,1.584,1.584,0,0,0,1.582-1.582,1.558,1.558,0,0,0-.079-.469l1.84-1.38a1.581,1.581,0,1,0-.706-1.316,1.558,1.558,0,0,0,.079.469l-1.84,1.38a1.575,1.575,0,0,0-2.3,1.994L7.568,7.541A1.555,1.555,0,0,0,5.8,7.828l-1.561-.78a1.549,1.549,0,0,0,.019-.192A1.582,1.582,0,1,0,2.672,8.438Zm0,0" fill="#fff"/>
      <path id="Path_4258" data-name="Path 4258" d="M17.473,16.945H16.91V5.8a.527.527,0,0,0-.527-.527H14.273a.527.527,0,0,0-.527.527V16.945H12.691V8.965a.527.527,0,0,0-.527-.527H10.055a.527.527,0,0,0-.527.527v7.98H8.473V13.184a.527.527,0,0,0-.527-.527H5.836a.527.527,0,0,0-.527.527v3.762H4.254V11.074a.527.527,0,0,0-.527-.527H1.617a.527.527,0,0,0-.527.527v5.871H.527A.527.527,0,0,0,.527,18H17.473a.527.527,0,0,0,0-1.055Zm0,0" fill="#fff"/>
    </g>
  </g>
</svg>
