<svg xmlns="http://www.w3.org/2000/svg" xmlns:xlink="http://www.w3.org/1999/xlink" width="18" height="18" viewBox="0 0 18 18">
  <defs>
    <clipPath id="clip-path">
      <rect id="Rectangle_16" data-name="Rectangle 16" width="18" height="18" transform="translate(30 105)" fill="#fff"/>
    </clipPath>
  </defs>
  <g id="Mask_Group_459" data-name="Mask Group 459" transform="translate(-30 -105)" clip-path="url(#clip-path)">
    <g id="dashboard_1_" data-name="dashboard (1)" transform="translate(30 105)">
      <path id="Path_4263" data-name="Path 4263" d="M6.937,6H1.312A1.314,1.314,0,0,1,0,4.687V1.312A1.314,1.314,0,0,1,1.312,0H6.937A1.314,1.314,0,0,1,8.25,1.312V4.687A1.314,1.314,0,0,1,6.937,6ZM1.312,1.125a.188.188,0,0,0-.187.187V4.687a.188.188,0,0,0,.187.188H6.937a.188.188,0,0,0,.188-.188V1.312a.188.188,0,0,0-.188-.187Zm0,0" fill="#fff"/>
      <path id="Path_4264" data-name="Path 4264" d="M6.937,18H1.312A1.314,1.314,0,0,1,0,16.688V8.813A1.314,1.314,0,0,1,1.312,7.5H6.937A1.314,1.314,0,0,1,8.25,8.813v7.875A1.314,1.314,0,0,1,6.937,18ZM1.312,8.625a.188.188,0,0,0-.187.188v7.875a.188.188,0,0,0,.187.187H6.937a.188.188,0,0,0,.188-.187V8.813a.188.188,0,0,0-.188-.188Zm0,0" fill="#fff"/>
      <path id="Path_4265" data-name="Path 4265" d="M16.688,18H11.063A1.314,1.314,0,0,1,9.75,16.688V13.313A1.314,1.314,0,0,1,11.063,12h5.625A1.314,1.314,0,0,1,18,13.313v3.375A1.314,1.314,0,0,1,16.688,18Zm-5.625-4.875a.188.188,0,0,0-.188.188v3.375a.188.188,0,0,0,.188.187h5.625a.188.188,0,0,0,.187-.187V13.313a.188.188,0,0,0-.187-.188Zm0,0" fill="#fff"/>
      <path id="Path_4266" data-name="Path 4266" d="M16.688,10.5H11.063A1.314,1.314,0,0,1,9.75,9.187V1.312A1.314,1.314,0,0,1,11.063,0h5.625A1.314,1.314,0,0,1,18,1.312V9.187A1.314,1.314,0,0,1,16.688,10.5ZM11.063,1.125a.188.188,0,0,0-.188.187V9.187a.188.188,0,0,0,.188.188h5.625a.188.188,0,0,0,.187-.188V1.312a.188.188,0,0,0-.187-.187Zm0,0" fill="#fff"/>
    </g>
  </g>
</svg>
