<svg xmlns="http://www.w3.org/2000/svg" viewBox="0 0 651.57 131.88">
<defs><style>.cls-1{fill:#1d8bb2;}.cls-2{fill:#0c4d71;}</style></defs>
<g id="Layer_2" data-name="Layer 2">
<g id="Layer_1-2" data-name="Layer 1">
<rect class="cls-1" width="37.68" height="131.88" rx="18.84"/>
<path class="cls-2" d="M88.9,0h-70A18.9,18.9,0,0,0,0,18.9H0c0,.21,0,.42,0,.62s0,.42,0,.63V75.4H0v31.33A19.83,19.83,0,0,1,18.43,94.24H42.62A18.9,18.9,0,0,0,60,75.4h0a18.9,18.9,0,0,0-18.9-18.9H27.51a9.35,9.35,0,1,1,0-18.69H88.9a18.9,18.9,0,0,0,18.9-18.9h0A18.9,18.9,0,0,0,88.9,0Z"/>
<circle class="cls-2" cx="88.96" cy="75.35" r="18.84"/>
<path class="cls-2" d="M189.6,31.56V46.68h-26V60H189.1V75.07H163.56v25.25H147.85V31.56Z"/>
<path class="cls-2" d="M270.63,100.32H253.44L250,89.51H224.47L221,100.32H203.84l23.38-68.76h20ZM237.24,49.53l-8.06,25.25h16.11Z"/>
<path class="cls-2" d="M280.46,31.56h51.08V46.68H313.86v53.64H298.14V46.68H280.46Z"/>
<path class="cls-2" d="M406.39,91.38a35.76,35.76,0,0,1-61.1-25.44,35.76,35.76,0,1,1,71.51,0A34.42,34.42,0,0,1,406.39,91.38ZM361,65.94q0,9,5.7,14.73a20.76,20.76,0,0,0,28.58,0,20,20,0,0,0,5.8-14.73,20,20,0,0,0-5.8-14.74,20.79,20.79,0,0,0-28.58,0Q361,56.9,361,65.94Z"/>
<path class="cls-2" d="M438.42,78.12V31.56h15.71V76.74q0,9.63,10.81,9.63t10.8-9.63V31.56h15.72V78.12q0,10.91-7.47,17.19t-19.05,6.38q-11.49,0-19.06-6.38T438.42,78.12Z"/><path class="cls-2" d="M569.55,100.32H552.66l-13-22.59h-7.47v22.59H516.51V31.56H544a23.47,23.47,0,0,1,23.58,23.57,20.93,20.93,0,0,1-3.49,11.59,23.64,23.64,0,0,1-9.18,8.35ZM544,46.29H532.22V64H544a7.23,7.23,0,0,0,5.55-2.55,9.71,9.71,0,0,0,0-12.57A7.21,7.21,0,0,0,544,46.29Z"/>
<path class="cls-2" d="M651.57,100.32H634.38L631,89.51H605.41L602,100.32H584.78l23.38-68.76h20ZM618.18,49.53l-8.06,25.25h16.11Z"/></g>
</g>
</svg>