<svg xmlns="http://www.w3.org/2000/svg" xmlns:xlink="http://www.w3.org/1999/xlink" width="18" height="18" viewBox="0 0 18 18">
  <defs>
    <clipPath id="clip-path">
      <rect id="Rectangle_16" data-name="Rectangle 16" width="18" height="18" transform="translate(30 103.336)" fill="#fff"/>
    </clipPath>
  </defs>
  <g id="Mask_Group_393" data-name="Mask Group 393" transform="translate(-30 -103.336)" clip-path="url(#clip-path)">
    <g id="statistics" transform="translate(30 103.336)">
      <path id="Path_4084" data-name="Path 4084" d="M2.793,8.438a1.576,1.576,0,0,0,1.1-.444l1.552.776a1.582,1.582,0,1,0,3-.487l2.11-2.11a1.582,1.582,0,0,0,2.191-1.9L14.573,2.9a1.58,1.58,0,1,0-.633-.843L12.107,3.43a1.581,1.581,0,0,0-2.3,2l-2.11,2.11a1.579,1.579,0,0,0-1.779.289L4.363,7.051a1.582,1.582,0,1,0-1.57,1.387ZM15.449,1.055a.527.527,0,1,1-.527.527A.528.528,0,0,1,15.449,1.055ZM11.23,4.219a.527.527,0,1,1-.527.527A.528.528,0,0,1,11.23,4.219ZM7.012,8.438a.527.527,0,1,1-.527.527A.528.528,0,0,1,7.012,8.438ZM2.793,6.328a.527.527,0,1,1-.527.527A.528.528,0,0,1,2.793,6.328Zm0,0" transform="translate(-0.121 0)" fill="#fff"/>
      <path id="Path_4085" data-name="Path 4085" d="M17.473,17.531H16.91V6.387a.527.527,0,0,0-.527-.527H14.273a.527.527,0,0,0-.527.527V17.531H12.691V9.551a.527.527,0,0,0-.527-.527H10.055a.527.527,0,0,0-.527.527v7.98H8.473V13.77a.527.527,0,0,0-.527-.527H5.836a.527.527,0,0,0-.527.527v3.762H4.254V11.66a.527.527,0,0,0-.527-.527H1.617a.527.527,0,0,0-.527.527v5.871H.527a.527.527,0,0,0,0,1.055H17.473a.527.527,0,0,0,0-1.055ZM14.8,6.914h1.055V17.531H14.8Zm-4.219,3.164h1.055v7.453H10.582ZM6.363,14.3H7.418v3.234H6.363ZM2.145,12.188H3.2v5.344H2.145Zm0,0" transform="translate(0 -0.586)" fill="#fff"/>
    </g>
  </g>
</svg>
