<svg xmlns="http://www.w3.org/2000/svg" width="606" height="409.14" viewBox="0 0 606 409.14">
  <g id="Group_3808" data-name="Group 3808" transform="translate(-110 -2004)">
    <rect id="Rectangle_1445" data-name="Rectangle 1445" width="606" height="0.303" transform="translate(110 2358.402)" fill="#ebebeb"/>
    <rect id="Rectangle_1446" data-name="Rectangle 1446" width="40.144" height="0.303" transform="translate(615.136 2377.911)" fill="#888"/>
    <rect id="Rectangle_1447" data-name="Rectangle 1447" width="10.536" height="0.303" transform="translate(500.903 2381.2)" fill="#ebebeb"/>
    <rect id="Rectangle_1448" data-name="Rectangle 1448" width="23.261" height="0.303" transform="translate(590.662 2366.656)" fill="#888"/>
    <rect id="Rectangle_1449" data-name="Rectangle 1449" width="52.35" height="0.303" transform="translate(173.58 2368.692)" fill="#888"/>
    <rect id="Rectangle_1450" data-name="Rectangle 1450" width="7.676" height="0.303" transform="translate(236.722 2368.692)" fill="#888"/>
    <rect id="Rectangle_1451" data-name="Rectangle 1451" width="113.535" height="0.303" transform="translate(269.343 2373.81)" fill="#888"/>
    <g id="Group_3758" data-name="Group 3758" transform="translate(189.02 2024.765)">
      <g id="Group_3740" data-name="Group 3740" transform="translate(0 25.567)">
        <rect id="Rectangle_1452" data-name="Rectangle 1452" width="151.234" height="156.267" fill="#ebebeb"/>
        <rect id="Rectangle_1453" data-name="Rectangle 1453" width="151.234" height="156.267" transform="translate(5.283)" fill="#f0f0f0"/>
        <rect id="Rectangle_1454" data-name="Rectangle 1454" width="143.412" height="148.932" transform="translate(9.097 3.704)" fill="#e0e0e0"/>
        <rect id="Rectangle_1455" data-name="Rectangle 1455" width="139.831" height="148.929" transform="translate(9.094 3.703)" fill="#f5f5f5"/>
        <rect id="Rectangle_1456" data-name="Rectangle 1456" width="2.839" height="148.932" transform="translate(77.618 3.704)" fill="#ebebeb"/>
        <path id="Path_4446" data-name="Path 4446" d="M738.159,131.27,698.3,280.2h-3.825L734.334,131.27Z" transform="translate(-676.89 -127.567)" fill="#fff"/>
        <rect id="Rectangle_1457" data-name="Rectangle 1457" width="2.434" height="154.083" transform="translate(79.24 1.407)" fill="#f0f0f0"/>
        <path id="Path_4447" data-name="Path 4447" d="M725.18,131.27,687.47,272.211V194.741l16.98-63.47Z" transform="translate(-678.376 -127.567)" fill="#fff"/>
        <path id="Path_4448" data-name="Path 4448" d="M809.182,142.42v14.3L776.765,277.835H772.94Z" transform="translate(-660.256 -125.204)" fill="#fff"/>
        <path id="Path_4449" data-name="Path 4449" d="M807.829,166.238v77.471l-7.776,29.078H779.322Z" transform="translate(-658.903 -120.154)" fill="#fff"/>
      </g>
      <g id="Group_3747" data-name="Group 3747" transform="translate(88.315 158.66)">
        <g id="Group_3746" data-name="Group 3746">
          <path id="Path_4450" data-name="Path 4450" d="M784.057,297.768h15.352v-1.022c0-2.006-2.247-3.6-4.922-3.493l-6.013.244c-2.477.1-4.418,1.634-4.418,3.493Z" transform="translate(-746.214 -226.321)" fill="#f0f0f0"/>
          <g id="Group_3741" data-name="Group 3741" transform="translate(35.871)">
            <path id="Path_4451" data-name="Path 4451" d="M809.14,302.7h20.314l3.23-28.363a1.99,1.99,0,0,0-1.988-1.894H817.087a1.992,1.992,0,0,0-1.989,1.894Z" transform="translate(-776.767 -230.732)" fill="#e6e6e6"/>
            <path id="Path_4452" data-name="Path 4452" d="M783.8,238.028h5.071l5.7,53.568H789.5a1.735,1.735,0,0,1-1.685-1.522l-5.375-50.525A1.342,1.342,0,0,1,783.8,238.028Z" transform="translate(-782.43 -238.028)" fill="#e6e6e6"/>
            <path id="Path_4453" data-name="Path 4453" d="M791.267,291.6h76a1.343,1.343,0,0,0,1.36-1.522l-5.376-50.525a1.733,1.733,0,0,0-1.684-1.521h-76a1.343,1.343,0,0,0-1.36,1.521l5.376,50.525A1.735,1.735,0,0,0,791.267,291.6Z" transform="translate(-782.055 -238.028)" fill="#ebebeb"/>
            <path id="Path_4454" data-name="Path 4454" d="M792.281,286.319h71.672a1.172,1.172,0,0,0,1.187-1.328l-4.69-44.08a1.512,1.512,0,0,0-1.469-1.327H787.308a1.17,1.17,0,0,0-1.185,1.327l4.689,44.08A1.514,1.514,0,0,0,792.281,286.319Z" transform="translate(-781.649 -237.698)" fill="#fafafa"/>
            <path id="Path_4455" data-name="Path 4455" d="M808.7,295.592h24.985a1.1,1.1,0,0,1,1.1,1.1h0a1.1,1.1,0,0,1-1.1,1.1H808.7a1.1,1.1,0,0,1-1.1-1.1h0A1.1,1.1,0,0,1,808.7,295.592Z" transform="translate(-777.093 -225.824)" fill="#e6e6e6"/>
          </g>
          <rect id="Rectangle_1458" data-name="Rectangle 1458" width="61.875" height="9.335" transform="translate(67.82 80.666) rotate(180)" fill="#e6e6e6"/>
          <g id="Group_3742" data-name="Group 3742" transform="translate(175.563 80.667)">
            <path id="Path_4456" data-name="Path 4456" d="M900.484,399.5h1.544a.357.357,0,0,0,.355-.35l2.443-94.566h-7.139l2.441,94.566A.359.359,0,0,0,900.484,399.5Z" transform="translate(-897.688 -304.585)" fill="#e6e6e6"/>
          </g>
          <g id="Group_3743" data-name="Group 3743" transform="translate(219.79 80.666)">
            <path id="Path_4457" data-name="Path 4457" d="M947.819,399.5h3.569l-10.072-94.917h-7.138Z" transform="translate(-934.178 -304.585)" fill="#f0f0f0"/>
          </g>
          <path id="Path_4458" data-name="Path 4458" d="M756.365,399.5h0l13.679-94.917h-7.138L752.834,399.5Z" transform="translate(-752.834 -223.918)" fill="#e6e6e6"/>
          <rect id="Rectangle_1459" data-name="Rectangle 1459" width="180.883" height="9.335" transform="translate(231.054 80.666) rotate(180)" fill="#f5f5f5"/>
          <path id="Path_4459" data-name="Path 4459" d="M799.151,399.5h4.1l0,0,1.518-94.914h-7.138Z" transform="translate(-743.336 -223.918)" fill="#f0f0f0"/>
          <g id="Group_3745" data-name="Group 3745" transform="translate(75.022 66.925)">
            <g id="Group_3744" data-name="Group 3744" transform="translate(1.544)">
              <path id="Path_4460" data-name="Path 4460" d="M846.625,295.975h1.9a.362.362,0,0,0,.362-.361v-2a.363.363,0,0,0-.362-.362H847.16a.362.362,0,0,0-.349.269l-.535,2A.361.361,0,0,0,846.625,295.975Z" transform="translate(-809.593 -293.247)" fill="#f5f5f5"/>
              <path id="Path_4461" data-name="Path 4461" d="M844.464,295.975h1.9a.362.362,0,0,0,.362-.361v-2a.363.363,0,0,0-.362-.362H845a.361.361,0,0,0-.349.269l-.535,2A.361.361,0,0,0,844.464,295.975Z" transform="translate(-810.051 -293.247)" fill="#f5f5f5"/>
              <path id="Path_4462" data-name="Path 4462" d="M842.3,295.975h1.9a.361.361,0,0,0,.361-.361v-2a.362.362,0,0,0-.361-.362h-1.361a.361.361,0,0,0-.349.269l-.534,2A.361.361,0,0,0,842.3,295.975Z" transform="translate(-810.509 -293.247)" fill="#f5f5f5"/>
              <path id="Path_4463" data-name="Path 4463" d="M840.142,295.975h1.9a.361.361,0,0,0,.361-.361v-2a.362.362,0,0,0-.361-.362h-1.361a.363.363,0,0,0-.35.269l-.535,2A.362.362,0,0,0,840.142,295.975Z" transform="translate(-810.967 -293.247)" fill="#f5f5f5"/>
              <path id="Path_4464" data-name="Path 4464" d="M837.981,295.975h1.9a.361.361,0,0,0,.361-.361v-2a.362.362,0,0,0-.361-.362h-1.361a.363.363,0,0,0-.35.269l-.534,2A.362.362,0,0,0,837.981,295.975Z" transform="translate(-811.425 -293.247)" fill="#f5f5f5"/>
              <path id="Path_4465" data-name="Path 4465" d="M835.82,295.975h1.894a.362.362,0,0,0,.362-.361v-2a.363.363,0,0,0-.362-.362h-1.36a.362.362,0,0,0-.35.269l-.534,2A.361.361,0,0,0,835.82,295.975Z" transform="translate(-811.883 -293.247)" fill="#f5f5f5"/>
              <path id="Path_4466" data-name="Path 4466" d="M833.658,295.975h1.9a.362.362,0,0,0,.362-.361v-2a.363.363,0,0,0-.362-.362h-1.361a.362.362,0,0,0-.349.269l-.534,2A.361.361,0,0,0,833.658,295.975Z" transform="translate(-812.342 -293.247)" fill="#f5f5f5"/>
              <path id="Path_4467" data-name="Path 4467" d="M831.5,295.975h1.9a.362.362,0,0,0,.362-.361v-2a.363.363,0,0,0-.362-.362h-1.361a.362.362,0,0,0-.349.269l-.534,2A.361.361,0,0,0,831.5,295.975Z" transform="translate(-812.8 -293.247)" fill="#f5f5f5"/>
              <path id="Path_4468" data-name="Path 4468" d="M829.336,295.975h1.9a.361.361,0,0,0,.361-.361v-2a.362.362,0,0,0-.361-.362h-1.361a.36.36,0,0,0-.349.269l-.535,2A.361.361,0,0,0,829.336,295.975Z" transform="translate(-813.258 -293.247)" fill="#f5f5f5"/>
              <path id="Path_4469" data-name="Path 4469" d="M827.175,295.975h1.9a.361.361,0,0,0,.361-.361v-2a.362.362,0,0,0-.361-.362H827.71a.363.363,0,0,0-.35.269l-.534,2A.362.362,0,0,0,827.175,295.975Z" transform="translate(-813.716 -293.247)" fill="#f5f5f5"/>
              <path id="Path_4470" data-name="Path 4470" d="M825.014,295.975h1.9a.361.361,0,0,0,.361-.361v-2a.362.362,0,0,0-.361-.362h-1.361a.363.363,0,0,0-.35.269l-.535,2A.362.362,0,0,0,825.014,295.975Z" transform="translate(-814.174 -293.247)" fill="#f5f5f5"/>
              <path id="Path_4471" data-name="Path 4471" d="M822.853,295.975h1.894a.362.362,0,0,0,.362-.361v-2a.363.363,0,0,0-.362-.362h-1.36a.362.362,0,0,0-.35.269l-.535,2A.361.361,0,0,0,822.853,295.975Z" transform="translate(-814.632 -293.247)" fill="#f5f5f5"/>
              <path id="Path_4472" data-name="Path 4472" d="M820.691,295.975h1.9a.362.362,0,0,0,.362-.361v-2a.363.363,0,0,0-.362-.362h-1.361a.362.362,0,0,0-.349.269l-.534,2A.361.361,0,0,0,820.691,295.975Z" transform="translate(-815.091 -293.247)" fill="#f5f5f5"/>
              <path id="Path_4473" data-name="Path 4473" d="M818.53,295.975h1.9a.362.362,0,0,0,.362-.361v-2a.363.363,0,0,0-.362-.362h-1.361a.362.362,0,0,0-.349.269l-.534,2A.361.361,0,0,0,818.53,295.975Z" transform="translate(-815.549 -293.247)" fill="#f5f5f5"/>
              <path id="Path_4474" data-name="Path 4474" d="M816.369,295.975h1.9a.361.361,0,0,0,.361-.361v-2a.362.362,0,0,0-.361-.362H816.9a.361.361,0,0,0-.349.269l-.536,2A.362.362,0,0,0,816.369,295.975Z" transform="translate(-816.007 -293.247)" fill="#f5f5f5"/>
            </g>
            <rect id="Rectangle_1460" data-name="Rectangle 1460" width="42.379" height="3.156" transform="translate(42.379 4.521) rotate(180)" fill="#ebebeb"/>
          </g>
        </g>
      </g>
      <g id="Group_3748" data-name="Group 3748" transform="translate(242.294 0)">
        <rect id="Rectangle_1461" data-name="Rectangle 1461" width="152.174" height="195.83" transform="translate(195.83 0) rotate(90)" fill="#e0e0e0"/>
        <rect id="Rectangle_1462" data-name="Rectangle 1462" width="190.402" height="146.746" transform="translate(193.116 149.46) rotate(180)" fill="#ebebeb"/>
        <line id="Line_15" data-name="Line 15" y2="20.464" transform="translate(94.72 29.222)" fill="none" stroke="#e0e0e0" stroke-miterlimit="10" stroke-width="1"/>
        <path id="Path_4475" data-name="Path 4475" d="M919.637,213.992V148.116h86.374V185.9" transform="translate(-871.45 -98.429)" fill="none" stroke="#e0e0e0" stroke-miterlimit="10" stroke-width="1"/>
        <path id="Path_4476" data-name="Path 4476" d="M972.464,199.407V179.295h47.483V200.11" transform="translate(-860.251 -91.819)" fill="none" stroke="#e0e0e0" stroke-miterlimit="10" stroke-width="1"/>
        <rect id="Rectangle_1463" data-name="Rectangle 1463" width="43.682" height="15.038" transform="translate(72.88 21.703)" fill="#f5f5f5"/>
        <rect id="Rectangle_1464" data-name="Rectangle 1464" width="41.634" height="16.335" transform="translate(114.388 57.784)" fill="#f5f5f5"/>
        <rect id="Rectangle_1465" data-name="Rectangle 1465" width="28.596" height="16.851" transform="translate(97.915 99.163)" fill="#f5f5f5"/>
        <rect id="Rectangle_1466" data-name="Rectangle 1466" width="30.622" height="12.8" transform="translate(144.385 101.89)" fill="#f5f5f5"/>
        <rect id="Rectangle_1467" data-name="Rectangle 1467" width="47.3" height="21.824" transform="translate(28.092 61.243)" fill="#f5f5f5"/>
        <rect id="Rectangle_1468" data-name="Rectangle 1468" width="30.207" height="15.95" transform="translate(33.083 107.588)" fill="#f5f5f5"/>
        <rect id="Rectangle_1469" data-name="Rectangle 1469" width="9.224" height="9.224" transform="matrix(0.707, 0.707, -0.707, 0.707, 94.721, 43.695)" fill="#f5f5f5"/>
        <rect id="Rectangle_1470" data-name="Rectangle 1470" width="9.224" height="9.224" transform="translate(134.561 80.953) rotate(45)" fill="#f5f5f5"/>
      </g>
      <g id="Group_3752" data-name="Group 3752" transform="translate(67.742 277.676)">
        <g id="Group_3749" data-name="Group 3749" transform="translate(6.326 18.611)">
          <path id="Path_4477" data-name="Path 4477" d="M777.2,362.876a2.893,2.893,0,0,0-2.32-4.151,6.194,6.194,0,0,0-1.962-6.765,1.442,1.442,0,0,0-.851-.378,1.642,1.642,0,0,0-.916.4l-5.416,3.892a3.255,3.255,0,0,0-1.075,1.063c-1.108,2.145,2.885,4.894,1.244,6.665-.471.508-1.23.612-1.818.98-1.29.806-1.445,2.576-2.046,3.972s-2.7,2.481-3.5,1.189c.591-1.339-1.2-2.494-2.654-2.664-1.435-.168-2.973-.25-3.778-1.614-2.063,1.8-6.684-3.229-6.579-5.259-1.7.13-2.852,1.719-3.223,3.308a23.771,23.771,0,0,0-.174,5.056c-.052,3.286-1.111,6.5-1.054,9.789.046,2.557,1.033,5.4,3.374,6.425a8.849,8.849,0,0,0,3.631.487l26.654-.171a4.066,4.066,0,0,0,1.874-.31c1.2-.629,1.457-2.208,1.568-3.56q.714-8.686,1.431-17.373Q778.407,363.369,777.2,362.876Z" transform="translate(-741.079 -351.581)" fill="#e0e0e0"/>
        </g>
        <g id="Group_3751" data-name="Group 3751" transform="translate(2.648 1.733)">
          <g id="Group_3750" data-name="Group 3750">
            <path id="Path_4478" data-name="Path 4478" d="M779.4,337.655H738.044l.341,4.179.242,2.983.631,7.764.36,4.46.476,5.938.2,2.546.068.757.244,2.994.33,4.1.2,2.546.213,2.584.242,2.994.185,2.264.2,2.546.087,1.107h37.956l.087-1.107.2-2.537.184-2.283.242-2.994.214-2.574.2-2.546.331-4.11.242-2.984.058-.757.2-2.546.486-5.938.359-4.45.622-7.774.244-2.983.341-4.179Zm2.488,2.74h0l-.8-.8h.865Zm-.2,2.537-.078,1.011-3.7,3.7-4.246-4.246,3.8-3.8h.893Zm-1.069,13.235-2.711,2.711-4.246-4.247,4.246-4.237,2.935,2.935Zm-39.355-2.837h0l2.934-2.935,4.247,4.237-4.247,4.247-2.7-2.711Zm35.274-4.315-4.247,4.247-4.246-4.247,4.246-4.247Zm-6.676-9.416h4.859l-2.43,2.429Zm1.05,15.032-4.237,4.247-4.247-4.247,4.247-4.237Zm-14.1,5.616,4.247-4.236,4.236,4.236-4.236,4.247Zm2.866,5.618-4.247,4.246-4.236-4.236,4.247-4.247Zm7-4.237,4.237,4.247-4.237,4.236-4.247-4.246Zm-5.616-8.366-4.247-4.247,4.247-4.247,4.236,4.247Zm-1.38,1.37-4.236,4.247-4.247-4.247,4.247-4.237Zm-9.863-1.37-4.236-4.247,4.236-4.247,4.247,4.247Zm0,2.75,4.247,4.236-4.247,4.247-4.236-4.247Zm4.247,15.48-4.247,4.236-4.236-4.236,4.236-4.247Zm1.37,1.37,4.247,4.247-4.236,4.247-4.247-4.247Zm1.38-1.37,4.247-4.247,4.236,4.247-4.236,4.236Zm9.863,1.37,4.237,4.247-4.237,4.247-4.247-4.247Zm5.616,5.616,4.247,4.247-2.75,2.75h-2.994l-2.749-2.75Zm-4.246-6.986,4.246-4.247,4.247,4.247-4.247,4.236Zm0-11.244,4.246-4.236,4.247,4.236-4.247,4.247Zm2.866-16.849-4.237,4.246-4.247-4.246,3.8-3.8h.895Zm-9.854-1.371-2.43-2.429h4.849Zm-1.38,1.371-4.236,4.246-4.247-4.246,3.8-3.8h.893Zm-7.433-3.8-2.43,2.429-2.419-2.429Zm-7.6,0,3.8,3.8-4.247,4.246-3.692-3.7-.079-1.011,3.323-3.333Zm-3.635,0-.787.787h0l-.068-.787Zm-.262,7.336,2.08,2.08-1.768,1.768Zm1.156,14.236-.165-2.012h0l1.088,1.088-.924.924Zm.2,2.556,2.089-2.1,4.247,4.247-4.247,4.236-1.71-1.71Zm.633,7.851-.01-.184.1.1-.087.087Zm.738,9.046-.534-6.511,1.253-1.253,4.247,4.247-4.247,4.236-.719-.719Zm.389,4.849-.079-.972.409-.408,1.38,1.38Zm1.71-2.75,4.236-4.247,4.247,4.247-2.75,2.75h-2.992Zm8.483,2.75,1.38-1.38,1.379,1.38Zm5.5,0-2.75-2.75,4.247-4.247,4.236,4.247-2.74,2.75Zm5.733,0,1.38-1.38,1.38,1.38Zm12.944,0h-1.71l1.379-1.38.408.408Zm.4-4.849-.73.719-4.246-4.236,4.246-4.247,1.254,1.253Zm.748-9.24-.019.194-.087-.087.107-.108Zm.242-2.984-1.72,1.71-4.246-4.236,4.246-4.247,2.1,2.1Zm.583-7.22-.932-.933,1.1-1.088Zm1.157-14.256-.311,3.867-1.778-1.778,2.089-2.09Z" transform="translate(-738.044 -337.655)" fill="#e6e6e6"/>
          </g>
        </g>
        <rect id="Rectangle_1471" data-name="Rectangle 1471" width="51.31" height="5.41" rx="1.643" transform="translate(51.31 5.41) rotate(-180)" fill="#f0f0f0"/>
        <rect id="Rectangle_1472" data-name="Rectangle 1472" width="43.91" height="5.41" rx="1.643" transform="translate(3.7 48.587)" fill="#f0f0f0"/>
      </g>
      <g id="Group_3754" data-name="Group 3754" transform="translate(363.114 212.713)">
        <path id="Path_4479" data-name="Path 4479" d="M1021.072,358.8l12.885-37.134s-17.871,13.248-17.752-1.44,8.141-3.283,10.927-8.708-7.929-5.368-4.169-13.6,14.442,4.414,16.329-2.876,4.9-11,12.676-10.342c0,0,4.2,9.591-.949,16.518s12.748,1.378,10.93,8.348-7.8,13.053-10.431,8.145-5.974,4.5-1.474,6.918-5.883,12.917-8.162,7.416a57.7,57.7,0,0,0-5.85-10.4l-11.874,39.732Z" transform="translate(-971.798 -282.201)" fill="#ebebeb"/>
        <path id="Path_4480" data-name="Path 4480" d="M1015.56,354.348,1001.034,330.6s14.367,6.467,12.065-3.678-6.129-1.041-8.875-4.375,4.675-4.911.83-10.037-9.326,5.236-11.733.478-5.049-6.87-10.334-5.241c0,0-1.46,7.271,3.152,11.286s-8.614,2.88-6.3,7.427,7.367,7.854,8.446,4.06,4.814,2.208,2.065,4.564,6.022,8.049,6.768,3.9a40.839,40.839,0,0,1,2.477-8.08l14.218,25.7Z" transform="translate(-979.565 -277.416)" fill="#e6e6e6"/>
        <path id="Path_4481" data-name="Path 4481" d="M1022.94,359.784l-6.651-38.256s15.315,15.761,17.536,1.42-7.415-4.5-9.268-10.228,8.585-3.972,6.229-12.593-14.783,2.006-15.463-5.4-3.024-11.5-10.713-12.1c0,0-5.626,8.682-1.7,16.257s-12.65-.686-11.985,6.4,5.524,13.967,8.873,9.6,5.109,5.335.336,6.98,3.681,13.53,6.777,8.529a56.918,56.918,0,0,1,7.359-9.209l5.253,40.626Z" transform="translate(-977.162 -282.626)" fill="#f5f5f5"/>
        <g id="Group_3753" data-name="Group 3753" transform="translate(22.73 73.139)">
          <path id="Path_4482" data-name="Path 4482" d="M1029.081,389.723h-22.835a3.021,3.021,0,0,1-3.016-2.836l-2.42-39.384a3.021,3.021,0,0,1,3.015-3.207H1031.5a3.023,3.023,0,0,1,3.017,3.207l-2.42,39.384A3.022,3.022,0,0,1,1029.081,389.723Z" transform="translate(-997.792 -342.691)" fill="#ebebeb"/>
          <path id="Path_4483" data-name="Path 4483" d="M1034.757,349.015H1001.34a3.021,3.021,0,0,1-3-2.675h0a3.021,3.021,0,0,1,3-3.368h33.416a3.022,3.022,0,0,1,3,3.368h0A3.023,3.023,0,0,1,1034.757,349.015Z" transform="translate(-998.319 -342.972)" fill="#f5f5f5"/>
        </g>
      </g>
      <g id="Group_3757" data-name="Group 3757" transform="translate(207.327 177.046)">
        <path id="Rectangle_1473" data-name="Rectangle 1473" d="M0,0H64.268a0,0,0,0,1,0,0V3.355a5,5,0,0,1-5,5H5a5,5,0,0,1-5-5V0A0,0,0,0,1,0,0Z" transform="translate(72.915 93.43) rotate(180)" fill="#e0e0e0"/>
        <path id="Path_4484" data-name="Path 4484" d="M918.74,374.946l-20.593-2.024V343.981h-8.161v28.933l-20.676,2.033a4.008,4.008,0,0,0-3.618,3.99v3.092h56.666v-3.092A4.008,4.008,0,0,0,918.74,374.946Z" transform="translate(-847.919 -233.952)" fill="#e0e0e0"/>
        <path id="Path_4485" data-name="Path 4485" d="M873.76,379.471a5.336,5.336,0,1,1-5.337-5.336A5.337,5.337,0,0,1,873.76,379.471Z" transform="translate(-848.471 -227.559)" fill="#e0e0e0"/>
        <path id="Path_4486" data-name="Path 4486" d="M906.245,379.471a5.336,5.336,0,1,0,5.337-5.336A5.337,5.337,0,0,0,906.245,379.471Z" transform="translate(-839.322 -227.559)" fill="#e0e0e0"/>
        <path id="Rectangle_1474" data-name="Rectangle 1474" d="M0,0H10.972a0,0,0,0,1,0,0V21.644a4.133,4.133,0,0,1-4.133,4.133H4.133A4.133,4.133,0,0,1,0,21.644V0A0,0,0,0,1,0,0Z" transform="translate(40.661 90.473)" fill="#e6e6e6"/>
        <path id="Path_4487" data-name="Path 4487" d="M880.18,338.811a355.779,355.779,0,0,0,10.609-75.43A10.59,10.59,0,0,1,901.38,253.2h19a10.6,10.6,0,0,1,10.6,10.546c.074,17.307-1.136,52.688-10.9,81.448l-36.159-1.332A4.022,4.022,0,0,1,880.18,338.811Z" transform="translate(-844.877 -253.198)" fill="#ebebeb"/>
        <g id="Group_3755" data-name="Group 3755" transform="translate(0 2.023)">
          <path id="Path_4488" data-name="Path 4488" d="M884.375,342.908a373.6,373.6,0,0,0,11.366-78.648,9.77,9.77,0,0,1,9.77-9.393h17.524a9.773,9.773,0,0,1,9.78,9.728c.068,15.964-1.047,51.786-10.052,78.313Z" transform="translate(-843.958 -254.867)" fill="#e6e6e6"/>
          <path id="Path_4489" data-name="Path 4489" d="M898.961,307.169s-20.825-4.212-40.929-2.172,9.46,28.31,9.46,28.31h4.15s-15.666-16.656-14.794-20.8,40.327,1.32,40.327,1.32Z" transform="translate(-851.028 -244.358)" fill="#e6e6e6"/>
          <path id="Path_4490" data-name="Path 4490" d="M922.012,342.909h-34.1a373.734,373.734,0,0,0,11.371-78.648,9.766,9.766,0,0,1,9.77-9.392h13.23a9.779,9.779,0,0,1,9.784,9.727C932.132,280.556,931.017,316.378,922.012,342.909Z" transform="translate(-843.208 -254.867)" fill="#e0e0e0"/>
        </g>
        <g id="Group_3756" data-name="Group 3756" transform="translate(6.355 89.253)">
          <path id="Path_4491" data-name="Path 4491" d="M858.36,326.839h68.962a2.089,2.089,0,0,1,2.089,2.088h0a2.089,2.089,0,0,1-2.089,2.088H858.36a2.089,2.089,0,0,1-2.089-2.088h0A2.089,2.089,0,0,1,858.36,326.839Z" transform="translate(-856.271 -326.839)" fill="#e0e0e0"/>
        </g>
      </g>
    </g>
    <ellipse id="_Path_" data-name="&lt;Path&gt;" cx="234.994" cy="13.724" rx="234.994" ry="13.724" transform="translate(178.007 2385.692)" fill="#f5f5f5"/>
    <g id="Group_3783" data-name="Group 3783" transform="translate(238.545 2004)">
      <path id="Path_4492" data-name="Path 4492" d="M924.445,95.15V478.287a5.6,5.6,0,0,1-5.684,5.6H725.907a5.015,5.015,0,0,1-5.078-5.139V94.69a4.523,4.523,0,0,1,4.351-4.7h45.789a3.565,3.565,0,0,1,3.26,2.279l2.1,5.163a3.561,3.561,0,0,0,3.26,2.254H865.8a3.527,3.527,0,0,0,3.26-2.218l2.1-5.187a3.577,3.577,0,0,1,3.26-2.291h45.062A5.113,5.113,0,0,1,924.445,95.15Z" transform="translate(-720.829 -89.987)" fill="#407bff"/>
      <path id="Path_4493" data-name="Path 4493" d="M924.445,95.15V478.287a5.6,5.6,0,0,1-5.684,5.6H725.907a5.015,5.015,0,0,1-5.078-5.139V94.69a4.523,4.523,0,0,1,4.351-4.7h45.789a3.565,3.565,0,0,1,3.26,2.279l2.1,5.163a3.561,3.561,0,0,0,3.26,2.254H865.8a3.527,3.527,0,0,0,3.26-2.218l2.1-5.187a3.577,3.577,0,0,1,3.26-2.291h45.062A5.113,5.113,0,0,1,924.445,95.15Z" transform="translate(-720.829 -89.987)" fill="#0c4d71" opacity="0.46" style="isolation: isolate"/>
      <g id="Group_3782" data-name="Group 3782" transform="translate(9.826 35.749)">
        <g id="Group_3761" data-name="Group 3761" transform="translate(0 255.08)">
          <rect id="Rectangle_1475" data-name="Rectangle 1475" width="50.185" height="50.185" rx="3.383" transform="translate(0.447)" fill="#fff"/>
          <rect id="Rectangle_1476" data-name="Rectangle 1476" width="28.932" height="28.932" transform="translate(11.074 10.627)" fill="#0b4b6f" opacity="0.5"/>
          <path id="Path_4494" data-name="Path 4494" d="M738.073,338.713v28.933h28.933V338.713ZM751.6,353.179l-12.2,12.2v-24.4ZM740.338,340.04h24.4l-12.2,12.2Zm12.2,14.077,12.2,12.2h-24.4Zm.938-.938,12.2-12.2v24.4Z" transform="translate(-727 -328.086)" fill="#fff" opacity="0.3" style="isolation: isolate"/>
          <g id="Group_3760" data-name="Group 3760" transform="translate(0 60.668)">
            <rect id="Rectangle_1477" data-name="Rectangle 1477" width="51.079" height="5.753" fill="#0b4b6f" opacity="0.75"/>
            <g id="Group_3759" data-name="Group 3759" transform="translate(0.648 1.002)">
              <path id="Path_4495" data-name="Path 4495" d="M730.921,381.354h-1.449v-.526h3.5v.526h-1.451v3.7h-.6Z" transform="translate(-729.471 -380.828)" fill="#0b4b6f"/>
            </g>
          </g>
        </g>
        <g id="Group_3764" data-name="Group 3764" transform="translate(65.556 254.581)">
          <rect id="Rectangle_1478" data-name="Rectangle 1478" width="50.185" height="50.185" rx="3.383" transform="translate(0.447)" fill="#fff"/>
          <rect id="Rectangle_1479" data-name="Rectangle 1479" width="28.932" height="28.932" transform="translate(11.074 10.627)" fill="#0b4b6f" opacity="0.5"/>
          <path id="Path_4496" data-name="Path 4496" d="M792.162,338.3v28.932h28.933V338.3Zm13.528,14.465-12.2,12.2v-24.4Zm-11.263-13.138h24.4l-12.2,12.2Zm12.2,14.077,12.2,12.2h-24.4Zm.938-.939,12.2-12.2v24.4Z" transform="translate(-781.089 -327.674)" fill="#fff" opacity="0.3" style="isolation: isolate"/>
          <g id="Group_3763" data-name="Group 3763" transform="translate(0 60.668)">
            <rect id="Rectangle_1480" data-name="Rectangle 1480" width="51.079" height="5.753" fill="#0b4b6f" opacity="0.75"/>
            <g id="Group_3762" data-name="Group 3762" transform="translate(0.647 1.003)">
              <path id="Path_4497" data-name="Path 4497" d="M785.01,380.941H783.56v-.525h3.5v.525h-1.45v3.7h-.6Z" transform="translate(-783.56 -380.416)" fill="#fff"/>
            </g>
          </g>
        </g>
        <g id="Group_3767" data-name="Group 3767" transform="translate(131.113 254.081)">
          <rect id="Rectangle_1481" data-name="Rectangle 1481" width="50.185" height="50.185" rx="3.383" transform="translate(0.447)" fill="#fff"/>
          <rect id="Rectangle_1482" data-name="Rectangle 1482" width="28.932" height="28.932" transform="translate(11.074 10.627)" fill="#0b4b6f" opacity="0.5"/>
          <path id="Path_4498" data-name="Path 4498" d="M846.252,337.888v28.933h28.932V337.888Zm13.528,14.466-12.2,12.2v-24.4Zm-11.263-13.139h24.4l-12.2,12.2Zm12.2,14.077,12.2,12.2h-24.4Zm.938-.938,12.2-12.2v24.4Z" transform="translate(-835.178 -327.262)" fill="#fff" opacity="0.3" style="isolation: isolate"/>
          <g id="Group_3766" data-name="Group 3766" transform="translate(0 60.668)">
            <rect id="Rectangle_1483" data-name="Rectangle 1483" width="51.079" height="5.753" fill="#0b4b6f" opacity="0.75"/>
            <g id="Group_3765" data-name="Group 3765" transform="translate(0.647 1.002)">
              <path id="Path_4499" data-name="Path 4499" d="M839.1,380.529h-1.451V380h3.5v.526H839.7v3.7h-.6Z" transform="translate(-837.649 -380.003)" fill="#fff"/>
            </g>
          </g>
        </g>
        <rect id="Rectangle_1484" data-name="Rectangle 1484" width="183.963" height="88.457" rx="1.945" fill="#fff"/>
        <g id="Group_3770" data-name="Group 3770" transform="translate(4.884 37.863)">
          <g id="Group_3768" data-name="Group 3768">
            <ellipse id="Ellipse_10" data-name="Ellipse 10" cx="4.075" cy="4.075" rx="4.075" ry="4.075" fill="#0b4b6f" opacity="0.75"/>
            <path id="Path_4500" data-name="Path 4500" d="M734.673,154.459l3.148,2.135v-4.271Z" transform="translate(-732.604 -150.384)" fill="#0b4b6f"/>
          </g>
          <g id="Group_3769" data-name="Group 3769" transform="translate(166.044)">
            <ellipse id="Ellipse_11" data-name="Ellipse 11" cx="4.075" cy="4.075" rx="4.075" ry="4.075" fill="#0b4b6f" opacity="0.75"/>
            <path id="Path_4501" data-name="Path 4501" d="M875.535,154.459l-3.148-2.135v4.271Z" transform="translate(-869.453 -150.384)" fill="#0b4b6f"/>
          </g>
        </g>
        <g id="Group_3772" data-name="Group 3772" transform="translate(30.536 21.403)">
          <rect id="Rectangle_1485" data-name="Rectangle 1485" width="102.647" height="10.232" fill="#0b4b6f" opacity="0.75"/>
          <rect id="Rectangle_1486" data-name="Rectangle 1486" width="102.647" height="10.232" transform="translate(0 13.284)" fill="#0b4b6f" opacity="0.75"/>
          <rect id="Rectangle_1487" data-name="Rectangle 1487" width="84.067" height="10.232" transform="translate(0 27.584)" fill="#0b4b6f" opacity="0.75"/>
          <g id="Group_3771" data-name="Group 3771" transform="translate(1.151 1.783)">
            <path id="Path_4502" data-name="Path 4502" d="M757.66,139.547h-2.579v-.934H761.3v.934h-2.578v6.587H757.66Z" transform="translate(-755.081 -138.613)" fill="#0b4b6f"/>
          </g>
        </g>
        <g id="Group_3773" data-name="Group 3773" transform="translate(71.563 81.689)">
          <path id="Path_4503" data-name="Path 4503" d="M791.658,188.722a1.838,1.838,0,1,1-1.837-1.839A1.838,1.838,0,0,1,791.658,188.722Z" transform="translate(-787.982 -186.883)" fill="#407bff" opacity="0.75"/>
          <path id="Path_4504" data-name="Path 4504" d="M799.323,188.722a1.838,1.838,0,1,1-1.837-1.839A1.838,1.838,0,0,1,799.323,188.722Z" transform="translate(-786.357 -186.883)" fill="#407bff" opacity="0.75"/>
          <path id="Path_4505" data-name="Path 4505" d="M806.988,188.722a1.838,1.838,0,1,1-1.837-1.839A1.838,1.838,0,0,1,806.988,188.722Z" transform="translate(-784.732 -186.883)" fill="#407bff" opacity="0.75"/>
          <path id="Path_4506" data-name="Path 4506" d="M814.653,188.722a1.838,1.838,0,1,1-1.837-1.839A1.838,1.838,0,0,1,814.653,188.722Z" transform="translate(-783.107 -186.883)" fill="#407bff" opacity="0.75"/>
          <path id="Path_4507" data-name="Path 4507" d="M822.318,188.722a1.838,1.838,0,1,1-1.837-1.839A1.838,1.838,0,0,1,822.318,188.722Z" transform="translate(-781.482 -186.883)" fill="#407bff" opacity="0.75"/>
        </g>
        <rect id="Rectangle_1488" data-name="Rectangle 1488" width="183.963" height="14.37" transform="translate(0 100.949)" fill="#fff"/>
        <rect id="Rectangle_1489" data-name="Rectangle 1489" width="14.704" height="14.704" transform="translate(169.259 100.782)" fill="#0b4b6f" opacity="0.75"/>
        <g id="Group_3777" data-name="Group 3777" transform="translate(0 126.434)">
          <rect id="Rectangle_1490" data-name="Rectangle 1490" width="169.419" height="55.829" rx="2.599" fill="#fff"/>
          <rect id="Rectangle_1491" data-name="Rectangle 1491" width="52.988" height="40.349" transform="translate(7.558 7.74)" fill="#0b4b6f" opacity="0.5"/>
          <g id="Group_3774" data-name="Group 3774" transform="translate(7.559 7.741)">
            <path id="Path_4508" data-name="Path 4508" d="M735.173,230.188v40.349H788.16V230.188Zm50.574,1.212-24.08,18.2-24.081-18.2Zm-49.362.612,24.276,18.35-24.276,18.351Zm1.2,37.313,24.081-18.2,24.08,18.2Zm25.086-18.963,24.276-18.35v36.7Z" transform="translate(-735.173 -230.188)" fill="#fff" opacity="0.3" style="isolation: isolate"/>
          </g>
          <g id="Group_3776" data-name="Group 3776" transform="translate(68.775 8.343)">
            <rect id="Rectangle_1492" data-name="Rectangle 1492" width="93.927" height="5.255" fill="#0b4b6f" opacity="0.75"/>
            <rect id="Rectangle_1493" data-name="Rectangle 1493" width="93.927" height="5.255" transform="translate(0 9.247)" fill="#0b4b6f" opacity="0.75"/>
            <rect id="Rectangle_1494" data-name="Rectangle 1494" width="43.177" height="5.255" transform="translate(0 19.015)" fill="#0b4b6f" opacity="0.75"/>
            <g id="Group_3775" data-name="Group 3775" transform="translate(0.592 0.916)">
              <path id="Path_4509" data-name="Path 4509" d="M787.494,231.92H786.17v-.48h3.195v.48H788.04V235.3h-.547Z" transform="translate(-786.17 -231.44)" fill="#0b4b6f"/>
            </g>
          </g>
        </g>
        <g id="Group_3781" data-name="Group 3781" transform="translate(0 187.034)">
          <path id="Rectangle_1495" data-name="Rectangle 1495" d="M2.6,0h164.22a2.6,2.6,0,0,1,2.6,2.6V53.23a2.6,2.6,0,0,1-2.6,2.6H2.6A2.6,2.6,0,0,1,0,53.23V2.6A2.6,2.6,0,0,1,2.6,0Z" fill="#fff"/>
          <path id="Path_4570" data-name="Path 4570" d="M0,0H52.988V40.349H0Z" transform="translate(7.558 7.74)" fill="#84a4b6" opacity="0.5"/>
          <g id="Group_3778" data-name="Group 3778" transform="translate(7.559 7.741)">
            <path id="Path_4510" data-name="Path 4510" d="M735.173,280.188v40.349H788.16V280.188Zm50.574,1.212-24.08,18.2-24.081-18.2Zm-49.362.612,24.276,18.35-24.276,18.351Zm1.2,37.313,24.081-18.2,24.08,18.2Zm25.086-18.963,24.276-18.35v36.7Z" transform="translate(-735.173 -280.188)" fill="#84a4b6" opacity="0.3" style="isolation: isolate"/>
          </g>
          <g id="Group_3780" data-name="Group 3780" transform="translate(68.775 8.343)">
            <rect id="Rectangle_1497" data-name="Rectangle 1497" width="93.927" height="5.255" fill="#0b4b6f" opacity="0.75"/>
            <rect id="Rectangle_1498" data-name="Rectangle 1498" width="93.927" height="5.255" transform="translate(0 9.247)" fill="#0b4b6f" opacity="0.75"/>
            <rect id="Rectangle_1499" data-name="Rectangle 1499" width="43.177" height="5.255" transform="translate(0 19.015)" fill="#0b4b6f" opacity="0.75"/>
            <g id="Group_3779" data-name="Group 3779" transform="translate(0.592 0.916)">
              <path id="Path_4511" data-name="Path 4511" d="M787.494,281.92H786.17v-.48h3.195v.48H788.04V285.3h-.547Z" transform="translate(-786.17 -281.44)" fill="#0b4b6f"/>
            </g>
          </g>
        </g>
        <rect id="Rectangle_1500" data-name="Rectangle 1500" width="6.548" height="116.371" transform="translate(175.644 126.492)" fill="#fff"/>
        <rect id="Rectangle_1501" data-name="Rectangle 1501" width="6.548" height="18.23" transform="translate(175.644 132.816)" fill="#0b4b6f" opacity="0.75"/>
      </g>
      <path id="Path_4512" data-name="Path 4512" d="M924.445,95.152v18.774H720.829V94.692a4.523,4.523,0,0,1,4.351-4.7h45.789a3.565,3.565,0,0,1,3.26,2.279l2.1,5.163a3.561,3.561,0,0,0,3.26,2.254H865.8a3.527,3.527,0,0,0,3.26-2.218l2.1-5.187a3.577,3.577,0,0,1,3.26-2.291h45.062A5.113,5.113,0,0,1,924.445,95.152Z" transform="translate(-720.829 -89.987)" fill="#0c4d71"/>
      <path id="Path_4513" data-name="Path 4513" d="M720.829,393.989H924.445v19.853a5.6,5.6,0,0,1-5.684,5.6H725.907a5.015,5.015,0,0,1-5.078-5.139Z" transform="translate(-720.829 -25.539)" fill="#0c4d71"/>
    </g>
    <g id="Group_3785" data-name="Group 3785" transform="translate(191.331 2005.989)">
      <rect id="Rectangle_1502" data-name="Rectangle 1502" width="36.919" height="17.973" transform="translate(0 0)" fill="#0c4d71"/>
      <g id="Group_3784" data-name="Group 3784" transform="translate(6.113 4.903)">
        <line id="Line_16" data-name="Line 16" x2="24.693" fill="none" stroke="#fff" stroke-linecap="round" stroke-linejoin="round" stroke-width="1"/>
        <line id="Line_17" data-name="Line 17" x2="24.693" transform="translate(0 4.084)" fill="none" stroke="#fff" stroke-linecap="round" stroke-linejoin="round" stroke-width="1"/>
        <line id="Line_18" data-name="Line 18" x2="12.346" transform="translate(0 8.168)" fill="none" stroke="#fff" stroke-linecap="round" stroke-linejoin="round" stroke-width="1"/>
      </g>
      <line id="Line_19" data-name="Line 19" x2="36.44" y2="31.604" transform="translate(25.832 17.234)" fill="none" stroke="#0c4d71" stroke-miterlimit="10" stroke-width="1"/>
      <ellipse id="Ellipse_12" data-name="Ellipse 12" cx="2.203" cy="2.203" rx="2.203" ry="2.203" transform="translate(60.069 46.635)" fill="#0b4b6f"/>
    </g>
    <g id="Group_3787" data-name="Group 3787" transform="translate(187.695 2229.374)">
      <rect id="Rectangle_1503" data-name="Rectangle 1503" width="36.919" height="17.973" transform="translate(0)" fill="#0b4b6f"/>
      <g id="Group_3786" data-name="Group 3786" transform="translate(6.113 4.903)">
        <line id="Line_20" data-name="Line 20" x2="24.693" fill="none" stroke="#fff" stroke-linecap="round" stroke-linejoin="round" stroke-width="1"/>
        <line id="Line_21" data-name="Line 21" x2="24.693" transform="translate(0 4.084)" fill="none" stroke="#fff" stroke-linecap="round" stroke-linejoin="round" stroke-width="1"/>
        <line id="Line_22" data-name="Line 22" x2="12.346" transform="translate(0 8.168)" fill="none" stroke="#fff" stroke-linecap="round" stroke-linejoin="round" stroke-width="1"/>
      </g>
      <ellipse id="Ellipse_13" data-name="Ellipse 13" cx="2.203" cy="2.203" rx="2.203" ry="2.203" transform="translate(60.069 6.784)" fill="#0b4b6f"/>
      <line id="Line_23" data-name="Line 23" x1="27.57" transform="translate(34.702 8.987)" fill="none" stroke="#0b4b6f" stroke-miterlimit="10" stroke-width="1"/>
    </g>
    <g id="Group_3789" data-name="Group 3789" transform="translate(404.653 2091.07)">
      <rect id="Rectangle_1504" data-name="Rectangle 1504" width="36.919" height="17.973" transform="translate(43.821 0)" fill="#0b4b6f"/>
      <g id="Group_3788" data-name="Group 3788" transform="translate(49.935 4.903)">
        <line id="Line_24" data-name="Line 24" x2="24.693" fill="none" stroke="#fff" stroke-linecap="round" stroke-linejoin="round" stroke-width="1"/>
        <line id="Line_25" data-name="Line 25" x2="24.693" transform="translate(0 4.084)" fill="none" stroke="#fff" stroke-linecap="round" stroke-linejoin="round" stroke-width="1"/>
        <line id="Line_26" data-name="Line 26" x2="12.347" transform="translate(0 8.168)" fill="none" stroke="#fff" stroke-linecap="round" stroke-linejoin="round" stroke-width="1"/>
      </g>
      <ellipse id="Ellipse_14" data-name="Ellipse 14" cx="2.203" cy="2.203" rx="2.203" ry="2.203" transform="translate(0 51.483)" fill="#0b4b6f"/>
      <line id="Line_27" data-name="Line 27" y1="39.851" x2="53.244" transform="translate(2.203 13.835)" fill="none" stroke="#0b4b6f" stroke-miterlimit="10" stroke-width="1"/>
    </g>
    <g id="Group_3791" data-name="Group 3791" transform="translate(408.271 2329.744)">
      <rect id="Rectangle_1505" data-name="Rectangle 1505" width="36.919" height="17.973" transform="translate(43.821 0)" fill="#0b4b6f"/>
      <g id="Group_3790" data-name="Group 3790" transform="translate(49.934 4.903)">
        <line id="Line_28" data-name="Line 28" x2="24.693" fill="none" stroke="#fff" stroke-linecap="round" stroke-linejoin="round" stroke-width="1"/>
        <line id="Line_29" data-name="Line 29" x2="24.693" transform="translate(0 4.084)" fill="none" stroke="#fff" stroke-linecap="round" stroke-linejoin="round" stroke-width="1"/>
        <line id="Line_30" data-name="Line 30" x2="12.346" transform="translate(0 8.168)" fill="none" stroke="#fff" stroke-linecap="round" stroke-linejoin="round" stroke-width="1"/>
      </g>
      <path id="Path_4514" data-name="Path 4514" d="M865.271,366.552a2.2,2.2,0,1,1-2.2-2.2A2.2,2.2,0,0,1,865.271,366.552Z" transform="translate(-860.867 -357.566)" fill="#0b4b6f"/>
      <line id="Line_31" data-name="Line 31" x2="44.341" transform="translate(2.202 8.987)" fill="none" stroke="#0b4b6f" stroke-miterlimit="10" stroke-width="1"/>
    </g>
    <g id="Group_3807" data-name="Group 3807" transform="translate(475.473 2079.142)">
      <g id="Group_3792" data-name="Group 3792" transform="translate(16.879 61.264)">
        <path id="Path_4515" data-name="Path 4515" d="M964.074,202.533c-4.081.185-21.187,23.155-21.187,23.155l-6.352-8.259s-9.793,19.027-4.949,28.083,30.374-15.7,30.374-15.7Z" transform="translate(-930.241 -202.533)" fill="#407bff"/>
        <path id="Path_4516" data-name="Path 4516" d="M964.076,202.535l-1.685,18.319-.431,8.955s-4.2,4.069-9.5,8.3c-7.793,6.221-17.986,12.787-20.871,7.405-4.844-9.052,4.951-28.082,4.951-28.082l6.35,8.256.044-.065C943.9,224.235,960.125,202.707,964.076,202.535Z" transform="translate(-930.241 -202.533)" fill="#00857b" style="isolation: isolate"/>
      </g>
      <path id="Path_4517" data-name="Path 4517" d="M958.509,219.252l-.431,8.955s-4.2,4.069-9.5,8.3c-.507-10.753,9.5-26.413,9.5-26.413Z" transform="translate(-909.479 -139.666)" opacity="0.2" style="isolation: isolate"/>
      <path id="Path_4518" data-name="Path 4518" d="M940.981,221.834l.914,1.749-2.663,10.36s7.344-6.683,2.663-13.231Z" transform="translate(-911.456 -137.415)" opacity="0.2" style="isolation: isolate"/>
      <g id="Group_3793" data-name="Group 3793" transform="translate(48.595 60.553)">
        <path id="Path_4519" data-name="Path 4519" d="M957.79,260.089l34.444,2.662s.468-20.577,3.213-31.288c.893-3.466,2.013-7.362,3.434-11.882.6-1.916,1.259-3.94,1.98-6.1.657-2.012,1.378-4.155,2.163-6.4a103.245,103.245,0,0,0-14.4-3.476,111.2,111.2,0,0,0-15.585-1.647c-6.749-.055-14.509.71-14.509.71s-1.1.269-1.8,7.416C956.1,216.8,956.391,235.645,957.79,260.089Z" transform="translate(-956.409 -201.947)" fill="#407bff"/>
        <path id="Path_4520" data-name="Path 4520" d="M957.793,260.084l34.443,2.659s.011-.421.033-1.184c.15-4.51.829-20.924,3.176-30.1.635-2.475,1.388-5.178,2.292-8.159.355-1.194.732-2.432,1.142-3.723.6-1.916,1.259-3.94,1.98-6.1.657-2.012,1.378-4.155,2.163-6.4-1.873-.6-3.767-1.141-5.672-1.636-2.874-.732-5.791-1.345-8.73-1.84a111.218,111.218,0,0,0-15.585-1.647c-4.349-.033-9.117.269-11.959.5-1.571.118-2.55.215-2.55.215s-1.1.269-1.8,7.416C956.091,216.8,956.393,235.64,957.793,260.084Z" transform="translate(-956.41 -201.946)" fill="#00857b" style="isolation: isolate"/>
      </g>
      <path id="Path_4521" data-name="Path 4521" d="M973,211.561c8.558-1.1,11.13-4.757,11.13-4.757-3.5-3.294-2.863-8.159-1.969-11.2a17.487,17.487,0,0,1,1.054-2.8l-10.3,1.927a29.662,29.662,0,0,1,.4,4.338,12.957,12.957,0,0,1-.291,3.186c-.7,3.078-2.454,3.121-2.454,3.121C968.754,208.762,973,211.561,973,211.561Z" transform="translate(-904.909 -143.33)" fill="#ebb376"/>
      <path id="Path_4522" data-name="Path 4522" d="M972.819,199.075a12.957,12.957,0,0,1-.291,3.186c4.09-.538,7.191-3.811,9.139-6.653a17.487,17.487,0,0,1,1.054-2.8l-10.3,1.927A29.662,29.662,0,0,1,972.819,199.075Z" transform="translate(-904.42 -143.33)" opacity="0.2" style="isolation: isolate"/>
      <g id="Group_3796" data-name="Group 3796" transform="translate(55.172 0)">
        <path id="Path_4523" data-name="Path 4523" d="M995.639,161.28h2.987c-.668-3.435-5.109-8.067-9.936-6.839a17.328,17.328,0,0,1,2.792-2.224,10.7,10.7,0,0,0-9.766,2.86c-4.172,4.3-6.357,13.194-2.7,16.672.465.444,1.036.311,1.658-.206,3.137,4.229,7.533.32,8.3.206.852-.125.183,2.2.183,2.2,2.522.065,3.122-3.2,3.122-3.2l2.4,3.2a7,7,0,0,0,1.757-6.358l2.185,1.4C999.049,163.244,995.639,161.28,995.639,161.28Z" transform="translate(-958.588 -151.985)" fill="#263238"/>
        <path id="Path_4524" data-name="Path 4524" d="M962.8,186.981s-5.07-13.361,8.078-19.914,20.82,2.751,21.3,11.764-2.4,16.789-6.713,18.335S962.8,186.981,962.8,186.981Z" transform="translate(-961.836 -149.255)" fill="#263238"/>
        <path id="Path_4525" data-name="Path 4525" d="M973.1,171.842c-8.872,1.281-11.041,6.443-10.37,15.68.837,11.542,4.544,19.293,15.283,15.251C992.6,197.284,987.833,169.714,973.1,171.842Z" transform="translate(-961.671 -147.8)" fill="#ebb376"/>
        <path id="Path_4526" data-name="Path 4526" d="M967.741,183.666a18.955,18.955,0,0,1-2.05,4.053,2.462,2.462,0,0,0,2.483.665Z" transform="translate(-961.019 -145.269)" fill="#d58745"/>
        <g id="Group_3794" data-name="Group 3794" transform="translate(11.312 35.036)">
          <path id="Path_4527" data-name="Path 4527" d="M971.779,182.672c.089.731.555,1.276,1.042,1.217s.811-.7.722-1.43-.554-1.276-1.042-1.218S971.69,181.94,971.779,182.672Z" transform="translate(-971.043 -180.82)" fill="#263238"/>
          <path id="Path_4528" data-name="Path 4528" d="M972.836,181.324l-1.667-.431S972.123,182.135,972.836,181.324Z" transform="translate(-971.169 -180.893)" fill="#263238"/>
        </g>
        <g id="Group_3795" data-name="Group 3795" transform="translate(2.203 35.98)">
          <path id="Path_4529" data-name="Path 4529" d="M964.264,183.451c.089.731.555,1.276,1.042,1.217s.811-.7.722-1.43-.554-1.276-1.042-1.217S964.175,182.72,964.264,183.451Z" transform="translate(-963.528 -181.599)" fill="#263238"/>
          <path id="Path_4530" data-name="Path 4530" d="M965.32,182.1l-1.667-.433S964.608,182.916,965.32,182.1Z" transform="translate(-963.654 -181.672)" fill="#263238"/>
        </g>
        <path id="Path_4531" data-name="Path 4531" d="M971.12,177.383a4.668,4.668,0,0,1,4.041.785" transform="translate(-959.868 -146.635)" fill="none" stroke="#263238" stroke-linecap="round" stroke-linejoin="round" stroke-width="0.708"/>
        <path id="Path_4532" data-name="Path 4532" d="M966.354,177.821a4.181,4.181,0,0,0-3.43,1.24" transform="translate(-961.605 -146.515)" fill="none" stroke="#263238" stroke-linecap="round" stroke-linejoin="round" stroke-width="0.708"/>
        <path id="Path_4533" data-name="Path 4533" d="M985.031,186.053s-5.2-6.689-5.386-12.407c0,0-18.618-4.643-16.907,13.327,0,0-4.007-15.6,11.193-18.153,15.175-2.551,18.357,19.765,11.441,27.55C985.372,196.369,988.255,190.241,985.031,186.053Z" transform="translate(-961.746 -148.459)" fill="#263238"/>
        <path id="Path_4534" data-name="Path 4534" d="M980.077,185.449a3.933,3.933,0,0,1,3.676-4.161c2.792-.1,4.918,5.357-1.723,7.7C981.076,189.326,980.384,188.448,980.077,185.449Z" transform="translate(-957.972 -145.773)" fill="#ebb376"/>
        <path id="Path_4535" data-name="Path 4535" d="M969.294,191.949s3.84.311,4.905-3.23" transform="translate(-960.255 -144.198)" fill="none" stroke="#263238" stroke-linecap="round" stroke-linejoin="round" stroke-width="0.708"/>
      </g>
      <g id="Group_3797" data-name="Group 3797" transform="translate(30.428 55.896)">
        <path id="Path_4536" data-name="Path 4536" d="M955.473,218.643a.87.87,0,0,1-.89.988h-9.837a1.145,1.145,0,0,1-1.114-.988l-2.2-19.416a.986.986,0,0,1,.89-1.122h9.837a1.275,1.275,0,0,1,1.114,1.122Z" transform="translate(-941.418 -198.104)" fill="#263238"/>
        <path id="Path_4537" data-name="Path 4537" d="M952.186,199.1l2.226,19.6a.746.746,0,0,1-.774.928H945.3c-.559,0-1.584-.308-1.647-.861L941.422,199.1c-.063-.553.892-1,1.452-1h8.342A1.014,1.014,0,0,1,952.186,199.1Z" transform="translate(-941.419 -198.104)" fill="#fff" opacity="0.5"/>
      </g>
      <path id="Path_4538" data-name="Path 4538" d="M936.013,219.449l5.128-8.7s-.016-4.574.433-5.65,5.472-3.505,6.459-3.143,1.345,9.337.448,10.546-4.036,2.554-4.036,2.554l.213,1.7-2.995,9.06Z" transform="translate(-912.138 -141.399)" fill="#ebb376"/>
      <path id="Path_4539" data-name="Path 4539" d="M934.311,215.867l1.7-1.7,8.073,9.059-1.15,3.588Z" transform="translate(-912.499 -138.804)" fill="#35b4aa"/>
      <path id="Path_4540" data-name="Path 4540" d="M968.056,229.98S977.55,251.6,989.8,258.611c.15-4.51.829-20.925,3.175-30.1.635-2.476,1.388-5.178,2.293-8.159l-3.735-4.488s-2.584,8.008-1.442,14.961l-14.283-8.751Z" transform="translate(-905.345 -138.442)" opacity="0.2" style="isolation: isolate"/>
      <path id="Path_4541" data-name="Path 4541" d="M980.232,226.843,968.576,217.7s-1.765-4.907-2.474-5.758-10.93-4.624-11.781-4.724-.052,8.372,1.277,9.814,9.509,4.282,9.509,4.282l12.2,11.493Z" transform="translate(-908.331 -140.276)" fill="#ebb376"/>
      <g id="Group_3798" data-name="Group 3798" transform="translate(63.565 65.679)">
        <path id="Path_4542" data-name="Path 4542" d="M1000.406,206.176c6.844,3.43,9.889,42.088-2,48.764s-29.648-23.487-29.648-23.487l6.9-7.323s14.47,12.115,16.217,11-.24-12.953-.24-12.953-2.035-3.583,2.247-9.214S1000.406,206.176,1000.406,206.176Z" transform="translate(-968.761 -206.176)" fill="#407bff"/>
        <path id="Path_4543" data-name="Path 4543" d="M1000.406,206.176c6.844,3.43,9.889,42.088-2,48.764s-29.648-23.487-29.648-23.487l6.9-7.323s14.47,12.115,16.217,11-.24-12.953-.24-12.953-2.035-3.583,2.247-9.214S1000.406,206.176,1000.406,206.176Z" transform="translate(-968.761 -206.176)" fill="#00857b" style="isolation: isolate"/>
      </g>
      <path id="Path_4544" data-name="Path 4544" d="M969.012,231.45l-2.066-1.242,7.751-11.363,2.846,1.587Z" transform="translate(-905.58 -137.811)" fill="#35b4aa"/>
      <path id="Path_4545" data-name="Path 4545" d="M960.259,202.446a6.434,6.434,0,0,0,1.422,3.853,9.265,9.265,0,0,0,2.292,2.066c2.207,1.464,5.672,2.744,11.022,3.455a33.506,33.506,0,0,0,8.848.075,24.231,24.231,0,0,0,3.8-.829,18.785,18.785,0,0,0,8.891-5.63q-2.842-.725-5.738-1.281-.742-.16-1.485-.29c-.5-.1-1-.183-1.508-.269a111.216,111.216,0,0,0-15.585-1.647c-1.883-.011-3.832.033-5.683.108-.807.042-1.6.075-2.357.128C962.682,202.263,961.335,202.359,960.259,202.446Z" transform="translate(-906.998 -141.393)" fill="#ebb376"/>
      <path id="Path_4546" data-name="Path 4546" d="M979.717,211.561a24.234,24.234,0,0,0,3.8-.829,12.616,12.616,0,0,1,3.154-6.911q-.742-.16-1.485-.29C982.236,205.608,980.5,209.4,979.717,211.561Z" transform="translate(-902.873 -141.057)" fill="#263238"/>
      <path id="Path_4547" data-name="Path 4547" d="M961.432,206.28a9.265,9.265,0,0,0,2.292,2.066,9.81,9.81,0,0,1,2.562-6.307c-.807.042-1.6.075-2.357.128A13.034,13.034,0,0,0,961.432,206.28Z" transform="translate(-906.749 -141.374)" fill="#263238"/>
      <path id="Path_4551" data-name="Path 4551" d="M930.85,406.3l7.257,1.258,2.976-9.718,2.715-8.92-8.367-2.87L933,396.769Z" transform="translate(-913.233 -102.364)" fill="#e4897b"/>
      <g id="Group_3802" data-name="Group 3802" transform="translate(0 300.373)">
        <path id="Path_4552" data-name="Path 4552" d="M942.825,403.97c.122-.789-9.818-1.879-9.818-1.879s-7.133,4.993-13.251,5.332-3.458,4.37,3.108,5.509l16.241,2.817C943.769,416.557,941.555,412.148,942.825,403.97Z" transform="translate(-916.314 -399.336)" fill="#263238"/>
        <g id="Group_3801" data-name="Group 3801" transform="translate(10.062)">
          <path id="Path_4553" data-name="Path 4553" d="M924.806,403.766a.929.929,0,0,1-.053-1.071,1.061,1.061,0,0,1,.644-.561,4.185,4.185,0,0,1,2.246.145c-.724-.558-1.333-1.188-1.271-1.7.04-.333.307-.57.793-.7a1.56,1.56,0,0,1,1.277.187c1.233.774,1.655,3.165,1.674,3.275a.27.27,0,0,1-.007.116h0a.238.238,0,0,1-.029.062h0a.263.263,0,0,1-.067.07h0a.244.244,0,0,1-.086.041,15.743,15.743,0,0,1-3.562.572A2.111,2.111,0,0,1,924.806,403.766Zm.768-1.147a.551.551,0,0,0-.342.288c-.166.362-.062.482-.028.522.4.456,2.292.235,3.85-.116C928,402.881,926.353,402.343,925.575,402.619Zm1.728-2.242c-.147.039-.393.125-.409.262-.053.439,1.218,1.434,2.577,2.23a4.293,4.293,0,0,0-1.314-2.368,1.012,1.012,0,0,0-.553-.166A1.163,1.163,0,0,0,927.3,400.377Z" transform="translate(-924.616 -399.818)" fill="#35b4aa"/>
        </g>
      </g>
      <path id="Path_4554" data-name="Path 4554" d="M932.592,396.981l8.086,1.045,2.733-9.017-8.359-2.919Z" transform="translate(-912.863 -102.355)" opacity="0.2" style="isolation: isolate"/>
      <path id="Path_4555" data-name="Path 4555" d="M970.823,408.9h7.369l1.21-10.079,1.095-9.248-8.748-1.4-.495,10.972Z" transform="translate(-904.758 -101.912)" fill="#e4897b"/>
      <path id="Path_4556" data-name="Path 4556" d="M982.616,404.965c-.019-.8-10-.172-10-.172s-6.141,6.135-12.107,7.513-2.631,4.894,4.036,4.894h16.492C985.775,417.2,982.814,413.237,982.616,404.965Z" transform="translate(-907.603 -98.44)" fill="#263238"/>
      <g id="Group_3803" data-name="Group 3803" transform="translate(58.585 304.238)">
        <path id="Path_4557" data-name="Path 4557" d="M964.947,407.4a.928.928,0,0,1-.241-1.045,1.049,1.049,0,0,1,.533-.663,4.142,4.142,0,0,1,2.237-.241c-.811-.425-1.522-.942-1.553-1.458-.019-.335.2-.612.656-.824a1.562,1.562,0,0,1,1.292-.034c1.354.553,2.193,2.841,2.228,2.938a.261.261,0,0,1-.01.2.319.319,0,0,1-.036.055h0a.253.253,0,0,1-.088.067,12.675,12.675,0,0,1-4.138,1.242A1.4,1.4,0,0,1,964.947,407.4Zm.554-1.26a.553.553,0,0,0-.286.343c-.1.385.026.485.067.519.47.381,2.3-.161,3.769-.772C967.93,405.98,966.219,405.73,965.5,406.135Zm1.305-2.5c-.137.063-.365.19-.356.327.025.441,1.453,1.2,2.933,1.756a4.331,4.331,0,0,0-1.714-2.108,1.056,1.056,0,0,0-.4-.084A1.082,1.082,0,0,0,966.806,403.632Z" transform="translate(-964.652 -403.007)" fill="#35b4aa"/>
      </g>
      <path id="Path_4558" data-name="Path 4558" d="M971.179,399.365l8.148-.352,1.095-9.347-8.748-1.448Z" transform="translate(-904.683 -101.904)" opacity="0.2" style="isolation: isolate"/>
      <g id="Group_3804" data-name="Group 3804" transform="translate(19.046 116.508)">
        <path id="Path_4559" data-name="Path 4559" d="M932.029,420.576l11.93,2.065c12.039-29.459,20.6-54.048,26.648-74.454,3.258-11.011,5.8-20.8,7.746-29.492l-.544,32.071v72.85h12.115c29.47-138.038,8.585-169.584,8.585-169.584l-35.256-5.917c-1.339,5.168-2.353,13.547-2.953,19.379l-1.59,11.45-13.782,69.9Z" transform="translate(-932.029 -248.114)" fill="#407bff"/>
        <path id="Path_4560" data-name="Path 4560" d="M932.029,420.576l11.93,2.065c12.039-29.459,20.6-54.048,26.648-74.454,3.258-11.011,5.8-20.8,7.746-29.492l-.544,32.071v72.85h12.115c29.47-138.038,8.585-169.584,8.585-169.584l-35.256-5.917c-1.339,5.168-2.353,13.547-2.953,19.379l-1.59,11.45-13.782,69.9Z" transform="translate(-932.029 -248.114)" fill="#282828" style="isolation: isolate"/>
      </g>
      <path id="Path_4561" data-name="Path 4561" d="M946,391.762l-14.8-4.818.2,6.182,12.238,3.834Z" transform="translate(-913.157 -102.174)" fill="#35b4aa"/>
      <path id="Path_4562" data-name="Path 4562" d="M983.8,391.862l-15.426-2.218,1.292,6.054,12.73,1.685Z" transform="translate(-905.278 -101.602)" fill="#35b4aa"/>
      <path id="Path_4563" data-name="Path 4563" d="M993.169,249.366v5.17l-35.953-2.707v-6.114Z" transform="translate(-907.643 -132.115)" fill="#405a67"/>
      <path id="Path_4564" data-name="Path 4564" d="M963.634,252.609l7.861.691.534-5.856-7.861-.691Z" transform="translate(-906.283 -131.894)" fill="#fff"/>
      <g id="Group_3805" data-name="Group 3805" transform="translate(72.993 115.077)">
        <path id="Path_4565" data-name="Path 4565" d="M976.539,255.855l1.783.09.464-8.922L977,246.933Z" transform="translate(-976.539 -246.933)" fill="#407bff"/>
        <path id="Path_4566" data-name="Path 4566" d="M976.539,255.855l1.783.09.464-8.922L977,246.933Z" transform="translate(-976.539 -246.933)" fill="#fff" opacity="0.6" style="isolation: isolate"/>
      </g>
      <g id="Group_3806" data-name="Group 3806" transform="translate(51.028 112.708)">
        <path id="Path_4567" data-name="Path 4567" d="M958.417,253.9l1.783.089.464-8.922-1.783-.089Z" transform="translate(-958.417 -244.979)" fill="#407bff"/>
        <path id="Path_4568" data-name="Path 4568" d="M958.417,253.9l1.783.089.464-8.922-1.783-.089Z" transform="translate(-958.417 -244.979)" fill="#fff" opacity="0.6" style="isolation: isolate"/>
      </g>
      <path id="Path_4569" data-name="Path 4569" d="M963.859,341.22c3.258-11.011,5.8-20.8,7.746-29.492a266.6,266.6,0,0,0-2.277-30.753S964.164,320.643,963.859,341.22Z" transform="translate(-906.235 -124.639)" opacity="0.2" style="isolation: isolate"/>
    </g>
  </g>
</svg>
