<svg xmlns="http://www.w3.org/2000/svg" width="575.32" height="409.14" viewBox="0 0 575.32 409.14">
  <g id="Group_3899" data-name="Group 3899" transform="translate(-313.34 -2393)">
    <rect id="Rectangle_1506" data-name="Rectangle 1506" width="575.32" height="0.288" transform="translate(313.34 2750.174)" fill="#888"/>
    <rect id="Rectangle_1507" data-name="Rectangle 1507" width="38.112" height="0.288" transform="translate(792.903 2768.694)" fill="#888"/>
    <rect id="Rectangle_1508" data-name="Rectangle 1508" width="10.003" height="0.288" transform="translate(684.452 2771.817)" fill="#888"/>
    <rect id="Rectangle_1509" data-name="Rectangle 1509" width="22.084" height="0.288" transform="translate(769.667 2758.009)" fill="#888"/>
    <rect id="Rectangle_1510" data-name="Rectangle 1510" width="49.7" height="0.288" transform="translate(373.701 2759.943)" fill="#888"/>
    <rect id="Rectangle_1511" data-name="Rectangle 1511" width="7.287" height="0.288" transform="translate(433.646 2759.943)" fill="#888"/>
    <rect id="Rectangle_1512" data-name="Rectangle 1512" width="107.787" height="0.288" transform="translate(464.616 2764.801)" fill="#888"/>
    <g id="Group_3842" data-name="Group 3842" transform="translate(393.533 2393)">
      <g id="Group_3813" data-name="Group 3813" transform="translate(371.17 199.188)">
        <circle id="Ellipse_15" data-name="Ellipse 15" cx="21.353" cy="21.353" r="21.353" transform="matrix(0.23, -0.973, 0.973, 0.23, 0, 41.564)" fill="#ebebeb"/>
        <g id="Group_3810" data-name="Group 3810" transform="translate(7.551 7.552)">
          <circle id="Ellipse_16" data-name="Ellipse 16" cx="18.136" cy="18.136" r="18.136" transform="translate(0.002)" fill="#e0e0e0" style="isolation: isolate"/>
          <path id="Path_4572" data-name="Path 4572" d="M1131.667,257.209a18.138,18.138,0,0,0-25.641,25.645,18.136,18.136,0,1,1,25.641-25.645Z" transform="translate(-1100.471 -251.659)" fill="#e0e0e0" style="isolation: isolate"/>
        </g>
        <g id="Group_3811" data-name="Group 3811" transform="translate(4.336 4.335)">
          <path id="Path_4573" data-name="Path 4573" d="M1119.029,248.863a21.353,21.353,0,1,0,21.353,21.354A21.352,21.352,0,0,0,1119.029,248.863Zm0,41.542a20.186,20.186,0,1,1,20.183-20.188A20.185,20.185,0,0,1,1119.029,290.4Z" transform="translate(-1097.677 -248.863)" fill="#e0e0e0" style="isolation: isolate"/>
          <path id="Path_4574" data-name="Path 4574" d="M1135.36,256.738a24.031,24.031,0,0,1,.545,3.163,20.19,20.19,0,0,1-27.6,26.9,23.623,23.623,0,0,1-3.13-.617,21.354,21.354,0,0,0,30.18-29.443Z" transform="translate(-1096.547 -247.677)" fill="#e0e0e0" style="isolation: isolate"/>
        </g>
        <g id="Group_3812" data-name="Group 3812" transform="translate(12.405 17.666)">
          <path id="Path_4575" data-name="Path 4575" d="M1128.436,267.691l-.55,1.559h3.369v1.6h-3.919l-1.948,5.639H1122.2l-1.994-5.639h-4.447l-2.017,5.639h-3.186l-1.948-5.639h-3.919v-1.6h3.369l-.527-1.559h-2.842v-1.6h2.292l-1.948-5.638h3.071l1.925,5.638h4.607l1.994-5.638h2.842l1.948,5.638h4.608l1.971-5.638h2.934l-1.949,5.638h2.269v1.6Zm-17.306,1.559h2.384l.55-1.559h-3.484Zm1.811,1.6h-1.261l.619,1.811Zm6.693-1.6-.55-1.559h-2.2l-.55,1.559Zm-2.178-3.163h1.055l-.527-1.49Zm8.022,1.6h-3.506l.55,1.559h2.406Zm-1.123,3.163h-1.283l.642,1.857Z" transform="translate(-1104.69 -260.449)" fill="#ebebeb"/>
        </g>
      </g>
      <g id="Group_3817" data-name="Group 3817" transform="translate(24.518 261.569)">
        <circle id="Ellipse_17" data-name="Ellipse 17" cx="21.353" cy="21.353" r="21.353" fill="#ebebeb"/>
        <g id="Group_3814" data-name="Group 3814" transform="translate(3.216 3.217)">
          <circle id="Ellipse_18" data-name="Ellipse 18" cx="18.136" cy="18.136" r="18.136" transform="translate(0.001)" fill="#e0e0e0" style="isolation: isolate"/>
          <path id="Path_4576" data-name="Path 4576" d="M826.631,307.656A18.138,18.138,0,0,0,800.99,333.3a18.136,18.136,0,1,1,25.641-25.647Z" transform="translate(-795.435 -302.106)" fill="#e0e0e0" style="isolation: isolate"/>
        </g>
        <g id="Group_3815" data-name="Group 3815" transform="translate(0 0.001)">
          <path id="Path_4577" data-name="Path 4577" d="M813.992,299.311a21.352,21.352,0,1,0,21.352,21.352A21.351,21.351,0,0,0,813.992,299.311Zm0,41.542a20.186,20.186,0,1,1,20.183-20.189A20.186,20.186,0,0,1,813.992,340.853Z" transform="translate(-792.64 -299.311)" fill="#e0e0e0" style="isolation: isolate"/>
          <path id="Path_4578" data-name="Path 4578" d="M830.324,307.185a24.022,24.022,0,0,1,.545,3.163,20.191,20.191,0,0,1-27.6,26.9,23.6,23.6,0,0,1-3.13-.618,21.354,21.354,0,0,0,30.18-29.443Z" transform="translate(-791.51 -298.125)" fill="#e0e0e0" style="isolation: isolate"/>
        </g>
        <g id="Group_3816" data-name="Group 3816" transform="translate(13.732 13.078)">
          <path id="Path_4579" data-name="Path 4579" d="M819.817,316.521V318.1H804.574v-1.581H814.59a1.394,1.394,0,0,0,.871-1.169c0-1.215-1.009-2.177-3.461-2.177a10.8,10.8,0,0,0-4.561,1.031l-.688-2.338a11.972,11.972,0,0,1,5.157-1.192c4.1,0,6.51,1.972,6.51,4.814a3.5,3.5,0,0,1-.138,1.031Zm-15.243,3.163h15.243v1.582h-9.81c-.665.344-1.1.756-1.1,1.375,0,1.192,1.031,2.085,3.53,2.085a10.04,10.04,0,0,0,5.409-1.512l.825,2.315a12.384,12.384,0,0,1-6.166,1.7c-4.171,0-6.555-1.925-6.555-4.791a3.041,3.041,0,0,1,.229-1.168h-1.6Z" transform="translate(-804.574 -310.676)" fill="#ebebeb"/>
        </g>
      </g>
      <g id="Group_3821" data-name="Group 3821" transform="translate(0 82.589)">
        <circle id="Ellipse_19" data-name="Ellipse 19" cx="21.353" cy="21.353" r="21.353" transform="matrix(0.23, -0.973, 0.973, 0.23, 0, 41.564)" fill="#ebebeb"/>
        <g id="Group_3818" data-name="Group 3818" transform="translate(7.551 7.552)">
          <circle id="Ellipse_20" data-name="Ellipse 20" cx="18.136" cy="18.136" r="18.136" transform="translate(0.001)" fill="#e0e0e0" style="isolation: isolate"/>
          <path id="Path_4580" data-name="Path 4580" d="M809.09,155.875a18.138,18.138,0,0,0-25.641,25.647,18.136,18.136,0,1,1,25.641-25.647Z" transform="translate(-777.894 -150.325)" fill="#e0e0e0" style="isolation: isolate"/>
        </g>
        <g id="Group_3819" data-name="Group 3819" transform="translate(4.335 4.336)">
          <path id="Path_4581" data-name="Path 4581" d="M796.451,147.53A21.352,21.352,0,1,0,817.8,168.882,21.351,21.351,0,0,0,796.451,147.53Zm0,41.542a20.186,20.186,0,1,1,20.183-20.189A20.186,20.186,0,0,1,796.451,189.072Z" transform="translate(-775.099 -147.53)" fill="#e0e0e0" style="isolation: isolate"/>
          <path id="Path_4582" data-name="Path 4582" d="M812.782,155.405a23.982,23.982,0,0,1,.547,3.162,20.191,20.191,0,0,1-27.6,26.9,23.6,23.6,0,0,1-3.13-.618,21.353,21.353,0,0,0,30.179-29.441Z" transform="translate(-773.969 -146.344)" fill="#e0e0e0" style="isolation: isolate"/>
        </g>
        <g id="Group_3820" data-name="Group 3820" transform="translate(18.686 17.666)">
          <path id="Path_4583" data-name="Path 4583" d="M792.842,161.613V166.5h7.747v2.522h-7.747v2.154h5.043v1.6h-5.043v2.384h-2.979v-2.384h-2.292v-1.6h2.292V159.115h11.712v2.5Z" transform="translate(-787.571 -159.115)" fill="#ebebeb"/>
        </g>
      </g>
      <g id="Group_3825" data-name="Group 3825" transform="translate(227.211 88.485)">
        <circle id="Ellipse_21" data-name="Ellipse 21" cx="21.353" cy="21.353" r="21.353" fill="#ebebeb"/>
        <g id="Group_3822" data-name="Group 3822" transform="translate(3.217 3.217)">
          <circle id="Ellipse_22" data-name="Ellipse 22" cx="18.136" cy="18.136" r="18.136" transform="translate(0)" fill="#e0e0e0" style="isolation: isolate"/>
          <path id="Path_4584" data-name="Path 4584" d="M1002.787,157.232a18.138,18.138,0,0,0-25.641,25.645,18.135,18.135,0,1,1,25.641-25.645Z" transform="translate(-971.592 -151.682)" fill="#e0e0e0" style="isolation: isolate"/>
        </g>
        <g id="Group_3823" data-name="Group 3823" transform="translate(0.001 0)">
          <path id="Path_4585" data-name="Path 4585" d="M990.149,148.886a21.352,21.352,0,1,0,21.352,21.352A21.351,21.351,0,0,0,990.149,148.886Zm0,41.542a20.186,20.186,0,1,1,20.183-20.189A20.186,20.186,0,0,1,990.149,190.428Z" transform="translate(-968.797 -148.886)" fill="#e0e0e0" style="isolation: isolate"/>
          <path id="Path_4586" data-name="Path 4586" d="M1006.48,156.761a24.216,24.216,0,0,1,.547,3.163,20.191,20.191,0,0,1-27.6,26.9,23.611,23.611,0,0,1-3.131-.617,21.354,21.354,0,0,0,30.18-29.443Z" transform="translate(-967.667 -147.7)" fill="#e0e0e0" style="isolation: isolate"/>
        </g>
        <g id="Group_3824" data-name="Group 3824" transform="translate(13.778 13.33)">
          <path id="Path_4587" data-name="Path 4587" d="M986.454,176.517h-3.277v-5.822l-2.407,1.283v-1.7l2.407-1.261v-1.581L980.77,168.7v-1.674l2.407-1.283v-5.272h2.934v3.736l5.844-3.094v1.7l-5.844,3.072v1.581l5.844-3.071v1.673l-5.844,3.094v4.859h.985c3.942,0,5.868-2.086,5.868-5.638h2.956C995.943,173.444,992.736,176.517,986.454,176.517Z" transform="translate(-980.77 -160.471)" fill="#ebebeb"/>
        </g>
      </g>
      <g id="Group_3829" data-name="Group 3829" transform="translate(125.466)">
        <circle id="Ellipse_23" data-name="Ellipse 23" cx="21.353" cy="21.353" r="21.353" fill="#ebebeb"/>
        <g id="Group_3826" data-name="Group 3826" transform="translate(3.217 3.217)">
          <circle id="Ellipse_24" data-name="Ellipse 24" cx="18.136" cy="18.136" r="18.136" transform="translate(0.001 0)" fill="#e0e0e0" style="isolation: isolate"/>
          <path id="Path_4588" data-name="Path 4588" d="M914.362,80.332a18.137,18.137,0,0,0-25.64,25.645,18.135,18.135,0,1,1,25.64-25.645Z" transform="translate(-883.167 -74.781)" fill="#e0e0e0" style="isolation: isolate"/>
        </g>
        <g id="Group_3827" data-name="Group 3827" transform="translate(0.001 0.001)">
          <path id="Path_4589" data-name="Path 4589" d="M901.724,71.986a21.352,21.352,0,1,0,21.352,21.352A21.352,21.352,0,0,0,901.724,71.986Zm0,41.542a20.186,20.186,0,1,1,20.183-20.189A20.186,20.186,0,0,1,901.724,113.528Z" transform="translate(-880.372 -71.986)" fill="#e0e0e0" style="isolation: isolate"/>
          <path id="Path_4590" data-name="Path 4590" d="M918.055,79.861a23.947,23.947,0,0,1,.547,3.163,20.191,20.191,0,0,1-27.6,26.9,23.782,23.782,0,0,1-3.13-.617,21.354,21.354,0,0,0,30.179-29.443Z" transform="translate(-879.242 -70.8)" fill="#e0e0e0" style="isolation: isolate"/>
        </g>
        <g id="Group_3828" data-name="Group 3828" transform="translate(14.053 13.331)">
          <path id="Path_4591" data-name="Path 4591" d="M907.186,85.175h-3.6a4.4,4.4,0,0,1,1.1,1.582h2.5v1.6H905.03a3.054,3.054,0,0,1,.023.458,4.957,4.957,0,0,1-3.552,4.929l3.85,5.867h-3.209l-3.507-5.363h-4.7V91.731h4.125c2.843,0,3.989-1.307,3.989-3.049v-.321h-9.466v-1.6h8.984c-.619-1.009-1.856-1.605-3.713-1.582h-5.271v-1.6h14.6Z" transform="translate(-892.585 -83.571)" fill="#ebebeb"/>
        </g>
      </g>
      <g id="Group_3833" data-name="Group 3833" transform="translate(322.872 37.89)">
        <circle id="Ellipse_25" data-name="Ellipse 25" cx="21.353" cy="21.353" r="21.353" fill="#ebebeb"/>
        <g id="Group_3830" data-name="Group 3830" transform="translate(3.216 3.217)">
          <circle id="Ellipse_26" data-name="Ellipse 26" cx="18.136" cy="18.136" r="18.136" transform="translate(0.001)" fill="#e0e0e0" style="isolation: isolate"/>
          <path id="Path_4592" data-name="Path 4592" d="M1085.925,113.261a18.138,18.138,0,0,0-25.641,25.645,18.136,18.136,0,1,1,25.641-25.645Z" transform="translate(-1054.729 -107.711)" fill="#e0e0e0" style="isolation: isolate"/>
        </g>
        <g id="Group_3831" data-name="Group 3831" transform="translate(0.001 0.001)">
          <path id="Path_4593" data-name="Path 4593" d="M1073.287,104.916a21.352,21.352,0,1,0,21.353,21.351A21.35,21.35,0,0,0,1073.287,104.916Zm0,41.54a20.186,20.186,0,1,1,20.183-20.189A20.186,20.186,0,0,1,1073.287,146.456Z" transform="translate(-1051.935 -104.916)" fill="#e0e0e0" style="isolation: isolate"/>
          <path id="Path_4594" data-name="Path 4594" d="M1089.618,112.79a24.011,24.011,0,0,1,.545,3.163,20.191,20.191,0,0,1-27.6,26.9,23.637,23.637,0,0,1-3.13-.617,21.354,21.354,0,0,0,30.18-29.443Z" transform="translate(-1050.805 -103.73)" fill="#e0e0e0" style="isolation: isolate"/>
        </g>
        <g id="Group_3832" data-name="Group 3832" transform="translate(13.651 13.33)">
          <path id="Path_4595" data-name="Path 4595" d="M1073.2,125.462l6.005,7.083h-3.484l-6.028-7.083h-.665v7.083h-2.934v-7.083H1063.8v-1.879h2.292V116.5h2.934v7.083h.665l6.028-7.083h3.484l-6.005,7.083h4.263v1.879Z" transform="translate(-1063.798 -116.5)" fill="#ebebeb"/>
        </g>
      </g>
      <g id="Group_3837" data-name="Group 3837" transform="translate(135.981 169.834)">
        <circle id="Ellipse_27" data-name="Ellipse 27" cx="21.353" cy="21.353" r="21.353" fill="#ebebeb"/>
        <g id="Group_3834" data-name="Group 3834" transform="translate(3.216 3.217)">
          <circle id="Ellipse_28" data-name="Ellipse 28" cx="18.136" cy="18.136" r="18.136" transform="translate(0.001)" fill="#e0e0e0" style="isolation: isolate"/>
          <path id="Path_4596" data-name="Path 4596" d="M923.5,227.931a18.138,18.138,0,0,0-25.641,25.645A18.135,18.135,0,1,1,923.5,227.931Z" transform="translate(-892.305 -222.381)" fill="#e0e0e0" style="isolation: isolate"/>
        </g>
        <g id="Group_3835" data-name="Group 3835" transform="translate(0.001 0.001)">
          <path id="Path_4597" data-name="Path 4597" d="M910.863,219.586a21.352,21.352,0,1,0,21.352,21.352A21.351,21.351,0,0,0,910.863,219.586Zm0,41.542a20.187,20.187,0,1,1,20.183-20.189A20.186,20.186,0,0,1,910.863,261.128Z" transform="translate(-889.511 -219.586)" fill="#e0e0e0" style="isolation: isolate"/>
          <path id="Path_4598" data-name="Path 4598" d="M927.194,227.46a24.01,24.01,0,0,1,.545,3.163,20.191,20.191,0,0,1-27.6,26.9,23.822,23.822,0,0,1-3.13-.618,21.354,21.354,0,0,0,30.18-29.443Z" transform="translate(-888.381 -218.4)" fill="#e0e0e0" style="isolation: isolate"/>
        </g>
        <g id="Group_3836" data-name="Group 3836" transform="translate(11.83 13.331)">
          <path id="Path_4599" data-name="Path 4599" d="M916.432,238.413v1.559h2.406v1.6h-2.406v5.639h-2.453l-8.824-10.842v10.842H902.2v-5.639h-2.406v-1.6H902.2v-1.559h-2.406v-1.6H902.2v-5.638h2.453l8.824,10.864V231.171h2.957v5.638h2.406v1.6Z" transform="translate(-899.791 -231.171)" fill="#ebebeb"/>
        </g>
      </g>
      <g id="Group_3841" data-name="Group 3841" transform="translate(227.279 313.305)">
        <circle id="Ellipse_29" data-name="Ellipse 29" cx="21.353" cy="21.353" r="21.353" fill="#ebebeb"/>
        <g id="Group_3838" data-name="Group 3838" transform="translate(3.216 3.217)">
          <circle id="Ellipse_30" data-name="Ellipse 30" cx="18.136" cy="18.136" r="18.136" transform="translate(0.001 0)" fill="#e0e0e0" style="isolation: isolate"/>
          <path id="Path_4600" data-name="Path 4600" d="M1002.847,352.619a18.138,18.138,0,0,0-25.641,25.647,18.136,18.136,0,1,1,25.641-25.647Z" transform="translate(-971.651 -347.069)" fill="#e0e0e0" style="isolation: isolate"/>
        </g>
        <g id="Group_3839" data-name="Group 3839" transform="translate(0 0.001)">
          <path id="Path_4601" data-name="Path 4601" d="M990.208,344.274a21.352,21.352,0,1,0,21.352,21.352A21.352,21.352,0,0,0,990.208,344.274Zm0,41.542a20.186,20.186,0,1,1,20.184-20.189A20.186,20.186,0,0,1,990.208,385.816Z" transform="translate(-968.856 -344.274)" fill="#e0e0e0" style="isolation: isolate"/>
          <path id="Path_4602" data-name="Path 4602" d="M1006.54,352.149a23.961,23.961,0,0,1,.545,3.162,20.191,20.191,0,0,1-27.6,26.9,23.6,23.6,0,0,1-3.13-.618,21.353,21.353,0,0,0,30.18-29.441Z" transform="translate(-967.726 -343.088)" fill="#e0e0e0" style="isolation: isolate"/>
        </g>
        <g id="Group_3840" data-name="Group 3840" transform="translate(13.88 10.58)">
          <path id="Path_4603" data-name="Path 4603" d="M993.938,367.978l1.925,1.834a7.956,7.956,0,0,1-5.661,2.658v2.544h-1.879v-2.589a8.224,8.224,0,0,1,0-16.367v-2.59H990.2v2.545a7.956,7.956,0,0,1,5.661,2.658l-1.925,1.811a5.543,5.543,0,0,0-3.736-1.857v11.231A5.469,5.469,0,0,0,993.938,367.978Zm-5.615,1.765v-11a5.639,5.639,0,0,0,0,11Z" transform="translate(-980.919 -353.468)" fill="#ebebeb"/>
        </g>
      </g>
    </g>
    <ellipse id="_Path_" data-name="&lt;Path&gt;" cx="223.097" cy="13.029" rx="223.097" ry="13.029" transform="translate(377.904 2776.082)" fill="#f5f5f5"/>
    <g id="Group_3845" data-name="Group 3845" transform="translate(399.232 2662.646)">
      <g id="Group_3843" data-name="Group 3843">
        <path id="Path_4604" data-name="Path 4604" d="M793.969,371.46s-8.921-10.618-14.63-5.666-2.821,15.457,3.764,15.795a16.525,16.525,0,0,0,10.867-3.321Z" transform="translate(-776.284 -297.57)" fill="#407bff"/>
        <path id="Path_4605" data-name="Path 4605" d="M793.969,371.46s-8.921-10.618-14.63-5.666-2.821,15.457,3.764,15.795a16.525,16.525,0,0,0,10.867-3.321Z" transform="translate(-776.284 -297.57)" fill="#0b4b6f" opacity="0.2" style="isolation: isolate"/>
        <path id="Path_4606" data-name="Path 4606" d="M823.287,348.015s7.494-7.849,12.132-6.517,4.156,20.084-10.233,12.491Z" transform="translate(-769.204 -301.055)" fill="#407bff"/>
        <path id="Path_4607" data-name="Path 4607" d="M823.287,348.015s7.494-7.849,12.132-6.517,4.156,20.084-10.233,12.491Z" transform="translate(-769.204 -301.055)" fill="#0b4b6f" opacity="0.3" style="isolation: isolate"/>
        <path id="Path_4608" data-name="Path 4608" d="M801.659,403.456s-24.622-33.684-4.639-40.507,23.551,27.1,17.842,36.544S801.659,403.456,801.659,403.456Z" transform="translate(-774.339 -297.936)" fill="#407bff"/>
        <path id="Path_4609" data-name="Path 4609" d="M813.242,342.887s15.272-35.463-7.351-36.534-25.087,35.164.945,40.42Z" transform="translate(-774.502 -306.33)" fill="#407bff"/>
        <path id="Path_4610" data-name="Path 4610" d="M801.659,403.456s-24.622-33.684-4.639-40.507,23.551,27.1,17.842,36.544S801.659,403.456,801.659,403.456Z" transform="translate(-774.339 -297.936)" fill="#0b4b6f" opacity="0.3" style="isolation: isolate"/>
        <path id="Path_4611" data-name="Path 4611" d="M813.242,342.887s15.272-35.463-7.351-36.534-25.087,35.164.945,40.42Z" transform="translate(-774.502 -306.33)" fill="#0b4b6f" opacity="0.3" style="isolation: isolate"/>
        <path id="Path_4612" data-name="Path 4612" d="M805.495,367.782s-7.427-31.312,6.846-33.81,28.363,25.794-1.162,40.017C811.179,373.988,806.114,370.846,805.495,367.782Z" transform="translate(-772.175 -302.189)" fill="#407bff"/>
        <path id="Path_4613" data-name="Path 4613" d="M805.495,367.782s-7.427-31.312,6.846-33.81,28.363,25.794-1.162,40.017C811.179,373.988,806.114,370.846,805.495,367.782Z" transform="translate(-772.175 -302.189)" fill="#0b4b6f" opacity="0.2" style="isolation: isolate"/>
      </g>
      <g id="Group_3844" data-name="Group 3844" transform="translate(9.597 100.743)">
        <path id="Path_4614" data-name="Path 4614" d="M784.625,393.884h41.339l-3.452,26.449H788.077Z" transform="translate(-784.625 -393.884)" fill="#263238"/>
      </g>
      <path id="Path_4615" data-name="Path 4615" d="M804.73,339.616s-15.553-12.7-9.4-28.39" transform="translate(-773.632 -305.592)" fill="none" stroke="#407bff" stroke-miterlimit="10" stroke-width="1"/>
      <path id="Path_4616" data-name="Path 4616" d="M798.6,309.45s15.559,3.481,12.346,25.427" transform="translate(-772.922 -305.86)" fill="none" stroke="#407bff" stroke-miterlimit="10" stroke-width="1"/>
      <path id="Path_4617" data-name="Path 4617" d="M814.23,335.9s7.623,2.78,8.426,12.937S809.711,370.1,809.711,370.1" transform="translate(-771.249 -301.876)" fill="none" stroke="#407bff" stroke-miterlimit="10" stroke-width="1"/>
      <path id="Path_4618" data-name="Path 4618" d="M810.24,338.1s2.835,10.177-.277,14.566-1.507,13.889-1.507,13.889" transform="translate(-771.5 -301.544)" fill="none" stroke="#407bff" stroke-miterlimit="10" stroke-width="1"/>
      <path id="Path_4619" data-name="Path 4619" d="M801.223,365.622c4.513,1.741,7.7,24.285,7.845,29.071" transform="translate(-772.527 -297.398)" fill="none" stroke="#407bff" stroke-miterlimit="10" stroke-width="1"/>
      <path id="Path_4620" data-name="Path 4620" d="M795.367,366.567s-6.423,14.606,5.621,26.363" transform="translate(-773.667 -297.256)" fill="none" stroke="#407bff" stroke-miterlimit="10" stroke-width="1"/>
      <path id="Path_4621" data-name="Path 4621" d="M828.338,350.894s4.887.443,6.767-3.27" transform="translate(-768.443 -300.109)" fill="none" stroke="#407bff" stroke-miterlimit="10" stroke-width="1"/>
      <path id="Path_4622" data-name="Path 4622" d="M827.009,346.265s4.005-4.027,7.226-1.338" transform="translate(-768.643 -300.655)" fill="none" stroke="#407bff" stroke-miterlimit="10" stroke-width="1"/>
      <path id="Path_4623" data-name="Path 4623" d="M789.365,372.531s-5.537-7.185-9.573-3.675" transform="translate(-775.756 -297.057)" fill="none" stroke="#407bff" stroke-miterlimit="10" stroke-width="1"/>
      <path id="Path_4624" data-name="Path 4624" d="M789.648,376.957s-10.672,1.873-11.732-3.775" transform="translate(-776.038 -296.259)" fill="none" stroke="#407bff" stroke-miterlimit="10" stroke-width="1"/>
    </g>
    <g id="Group_3853" data-name="Group 3853" transform="translate(453.172 2475.204)">
      <g id="Group_3846" data-name="Group 3846">
        <path id="Path_4625" data-name="Path 4625" d="M932.547,362.3c-3.485,0-7.019-.168-10.5-.5-2.089-.2-4.191-.459-6.251-.773a.638.638,0,0,1,.192-1.262c2.038.311,4.117.567,6.18.765a109.6,109.6,0,0,0,12.789.468.638.638,0,1,1,.026,1.276Q933.768,362.3,932.547,362.3Zm6.246-.178a.638.638,0,0,1-.037-1.275c2.113-.122,4.238-.308,6.318-.551a.639.639,0,0,1,.148,1.269c-2.1.245-4.256.433-6.393.556Zm-35.378-3.744a.664.664,0,0,1-.169-.023q-1.241-.34-2.468-.71a.638.638,0,0,1,.368-1.222q1.212.362,2.438.7a.639.639,0,0,1-.169,1.254Zm60.449-.7a.638.638,0,0,1-.184-1.248q1.212-.366,2.413-.759a.638.638,0,1,1,.4,1.212q-1.213.4-2.441.77A.647.647,0,0,1,963.865,357.683Zm14.285-5.44a.638.638,0,0,1-.269-1.217,109.055,109.055,0,0,0,16.475-9.479.638.638,0,0,1,.731,1.047,110.236,110.236,0,0,1-16.668,9.589A.621.621,0,0,1,978.15,352.243Zm-94.942-1.671a.651.651,0,0,1-.288-.068c-1.908-.968-3.806-2-5.643-3.073a.638.638,0,1,1,.643-1.1c1.815,1.059,3.691,2.08,5.577,3.034a.639.639,0,0,1-.29,1.208Zm-8.888-5.044a.638.638,0,0,1-.341-.1,109.586,109.586,0,0,1-15.292-11.662.638.638,0,1,1,.859-.942,108.4,108.4,0,0,0,15.115,11.525.638.638,0,0,1-.342,1.178Zm123.5-5.064a.638.638,0,0,1-.383-1.148c1.682-1.266,3.35-2.6,4.956-3.958a.638.638,0,1,1,.825.975c-1.625,1.376-3.313,2.724-5.015,4A.63.63,0,0,1,997.82,340.464ZM850.208,324.8a.639.639,0,0,1-.482-.22q-.841-.968-1.66-1.957a.639.639,0,0,1,.984-.816q.81.979,1.641,1.935a.639.639,0,0,1-.063.9A.63.63,0,0,1,850.208,324.8Zm166.05-1.908a.639.639,0,0,1-.491-1.046q.811-.977,1.6-1.973a.638.638,0,0,1,1,.793q-.8,1.008-1.619,2A.639.639,0,0,1,1016.258,322.9Zm8.927-12.434a.621.621,0,0,1-.334-.1.639.639,0,0,1-.209-.878,107.8,107.8,0,0,0,8.5-17,.638.638,0,0,1,1.188.468,109.158,109.158,0,0,1-8.6,17.2A.635.635,0,0,1,1025.184,310.463ZM837.7,307.124a.637.637,0,0,1-.555-.322c-1.05-1.849-2.061-3.755-3-5.666a.639.639,0,0,1,1.145-.566c.932,1.891,1.931,3.775,2.969,5.6a.638.638,0,0,1-.239.87A.628.628,0,0,1,837.7,307.124Zm-4.616-9.089a.639.639,0,0,1-.583-.376,109.254,109.254,0,0,1-6.318-18.159.638.638,0,1,1,1.237-.311,108.04,108.04,0,0,0,6.246,17.947.638.638,0,0,1-.32.843A.621.621,0,0,1,833.079,298.035Zm202-8.26a.649.649,0,0,1-.212-.036.64.64,0,0,1-.39-.816c.7-1.985,1.353-4.016,1.937-6.037a.638.638,0,1,1,1.227.353c-.59,2.046-1.25,4.1-1.96,6.111A.637.637,0,0,1,1035.075,289.775ZM824.42,267.453a.637.637,0,0,1-.633-.557q-.164-1.27-.3-2.547a.638.638,0,0,1,1.269-.135q.133,1.262.295,2.52a.638.638,0,0,1-.551.715A.668.668,0,0,1,824.42,267.453Zm216.27-2.513a.676.676,0,0,1-.068,0,.637.637,0,0,1-.567-.7q.064-.6.122-1.21.062-.658.117-1.317a.638.638,0,1,1,1.271.108c-.037.442-.076.886-.118,1.329-.039.41-.079.818-.123,1.225A.639.639,0,0,1,1040.689,264.94Zm.557-15.294a.637.637,0,0,1-.636-.617,107.967,107.967,0,0,0-2.3-18.862.638.638,0,0,1,1.249-.266,109.183,109.183,0,0,1,2.331,19.086.639.639,0,0,1-.617.659ZM823.8,245.8h-.045a.637.637,0,0,1-.591-.681q.095-1.358.225-2.721.174-1.842.409-3.664a.639.639,0,1,1,1.267.162q-.233,1.8-.405,3.622-.129,1.346-.223,2.69A.638.638,0,0,1,823.8,245.8Zm1.186-10.136a.525.525,0,0,1-.1-.009.638.638,0,0,1-.527-.733,109.656,109.656,0,0,1,4.765-18.625.638.638,0,1,1,1.2.423,108.281,108.281,0,0,0-4.71,18.409A.639.639,0,0,1,824.987,235.666Zm213.078-8.721a.638.638,0,0,1-.618-.483c-.51-2.035-1.089-4.086-1.719-6.094a.638.638,0,1,1,1.217-.383c.639,2.033,1.223,4.108,1.739,6.166a.638.638,0,0,1-.464.774A.6.6,0,0,1,1038.065,226.945Zm-203.4-21.562a.639.639,0,0,1-.572-.921q.569-1.156,1.163-2.3a.638.638,0,0,1,1.132.59q-.589,1.127-1.151,2.27A.637.637,0,0,1,834.666,205.383Zm194.357-2.23a.638.638,0,0,1-.566-.344q-.587-1.124-1.2-2.232a.639.639,0,0,1,1.118-.617q.618,1.122,1.212,2.26a.639.639,0,0,1-.566.933Zm-8.005-13.034a.637.637,0,0,1-.519-.267,109.184,109.184,0,0,0-12.363-14.438.638.638,0,1,1,.894-.911,110.529,110.529,0,0,1,12.506,14.607.637.637,0,0,1-.519,1.009Zm-174.9-3.127a.639.639,0,0,1-.5-1.029c1.3-1.686,2.669-3.358,4.068-4.967a.638.638,0,1,1,.963.838c-1.382,1.591-2.734,3.243-4.02,4.909A.636.636,0,0,1,846.121,186.991Zm6.609-7.786a.639.639,0,0,1-.467-1.074,110.413,110.413,0,0,1,14.293-12.865.638.638,0,1,1,.768,1.019A109.21,109.21,0,0,0,853.2,179,.632.632,0,0,1,852.73,179.2Zm153.072-6.241a.636.636,0,0,1-.43-.168c-1.552-1.418-3.17-2.812-4.809-4.141a.638.638,0,0,1,.8-.991c1.658,1.345,3.294,2.755,4.865,4.189a.639.639,0,0,1-.43,1.11ZM877.557,159.348a.638.638,0,0,1-.322-1.189q1.106-.647,2.229-1.269a.638.638,0,0,1,.618,1.117q-1.108.614-2.2,1.253A.632.632,0,0,1,877.557,159.348ZM985.119,158.1a.631.631,0,0,1-.31-.081q-1.111-.614-2.24-1.206a.638.638,0,1,1,.593-1.13q1.141.6,2.267,1.22a.638.638,0,0,1-.309,1.2Zm-13.891-6.45a.627.627,0,0,1-.227-.041,108.149,108.149,0,0,0-18.287-5.168.638.638,0,0,1,.238-1.254,109.429,109.429,0,0,1,18.5,5.229.638.638,0,0,1-.227,1.235Zm-73.983-1.314a.638.638,0,0,1-.207-1.242c2.017-.69,4.077-1.327,6.123-1.894a.639.639,0,0,1,.341,1.231c-2.022.559-4.057,1.189-6.05,1.871A.643.643,0,0,1,897.246,150.335Zm9.791-2.84a.638.638,0,0,1-.147-1.259,109.029,109.029,0,0,1,19.021-2.809.638.638,0,1,1,.075,1.274,107.722,107.722,0,0,0-18.8,2.776A.664.664,0,0,1,907.037,147.5Zm42.025-1.691a.727.727,0,0,1-.1-.008c-2.08-.32-4.2-.582-6.293-.782a.638.638,0,1,1,.121-1.27c2.119.2,4.262.468,6.366.792a.638.638,0,0,1-.1,1.269Zm-7.811-.918H941.2q-1.269-.105-2.531-.178a.639.639,0,0,1,.075-1.275q1.279.076,2.561.18a.639.639,0,0,1-.052,1.275Z" transform="translate(-823.163 -143.427)" fill="#407bff"/>
      </g>
      <g id="Group_3851" data-name="Group 3851" transform="translate(8.135 8.225)">
        <g id="Group_3847" data-name="Group 3847">
          <path id="Path_4626" data-name="Path 4626" d="M830.235,252.412q-.034-5.036.413-9.942a101.113,101.113,0,0,1,99.987-91.892c.617,0,1.232,0,1.842,0a100.874,100.874,0,0,1,36.03,7.038h.007a101.223,101.223,0,0,1,63.362,83.024,103.152,103.152,0,0,1,.593,10.335,101.12,101.12,0,1,1-202.234,1.435Z" transform="translate(-830.233 -150.576)" fill="#407bff"/>
        </g>
        <g id="Group_3848" data-name="Group 3848" opacity="0.6">
          <path id="Path_4627" data-name="Path 4627" d="M830.235,252.412q-.034-5.036.413-9.942a101.113,101.113,0,0,1,99.987-91.892c.617,0,1.232,0,1.842,0a100.874,100.874,0,0,1,36.03,7.038h.007a101.223,101.223,0,0,1,63.362,83.024,103.152,103.152,0,0,1,.593,10.335,101.12,101.12,0,1,1-202.234,1.435Z" transform="translate(-830.233 -150.576)" fill="#fff"/>
        </g>
        <g id="Group_3849" data-name="Group 3849">
          <path id="Path_4628" data-name="Path 4628" d="M901.057,313.4c-1.9.184-2.753,2.518-3.14,4.42q-.861,4.284-1.729,8.569c3.481,1.632,3.191,5.875,1.569,8.754a101.159,101.159,0,0,1-67.522-94.686q-.034-5.036.413-9.942a2.541,2.541,0,0,1,.259-.143c2.756-1.3,4.931,1.054,7.009,2.383.469.3,6.529,3.245,6.608,2.426a26.71,26.71,0,0,0,.422,7.931.8.8,0,0,0,.261.527c.395.27.841-.275.985-.731.368-1.166.526-2.4.963-3.537a4.146,4.146,0,0,1,2.4-2.605c1.172-.369,2.451.066,3.668-.1a5.031,5.031,0,0,0,3.473-2.61,16.439,16.439,0,0,0,1.424-4.081c1.429,3.172,5.052,1.216,7.181,3.78.685.824,1.506,2.011,2.5,1.612.945-.38,1.053-1.993,2.063-2.118.708-.087,1.225.689,1.33,1.393a7.582,7.582,0,0,0,.288,2.106,1.859,1.859,0,0,0,2.544.781c.769-.466,1.067-1.411,1.548-2.171s1.512-1.4,2.237-.866a1.4,1.4,0,0,1,.395.49c.7,1.351-.093,2.991-1.033,4.188s-2.1,2.395-2.2,3.914a1.266,1.266,0,0,0,1.751-.368,2.142,2.142,0,0,1,.365-.593c.388-.326.963-.016,1.39.26a9.106,9.106,0,0,0,6.872,1.219q.261-4.622.521-9.245c.7-.024,1.117-.068,1.382-.785a96.307,96.307,0,0,0,6.979,6.7,1.878,1.878,0,0,1,.734.885,5.906,5.906,0,0,1-.03,1.215c.082,1.345,1.885,1.7,3.232,1.663.391.217.167.859-.224,1.077a8.736,8.736,0,0,0-1.233.513,1.716,1.716,0,0,0-.344,1.854,4.449,4.449,0,0,0,5.574,2.776,1.347,1.347,0,0,0,.677-.456c.341-.5.018-1.171-.044-1.777-.245-2.388,2.331-1.832,3.519-1.171,1.611.9,2.514,3.269,2.816,4.968.351,1.984,1.851,15.156,6.247,13.335a1.965,1.965,0,0,0,.919-.937c.635-1.2.591-2.636,1.055-3.908s1.912-2.431,3.1-1.772c.474.263.777.761,1.23,1.06,1.263.832,3.062-.168,4.438.459a12.256,12.256,0,0,1,1.646,1.271c.573.394,1.474.519,1.879-.046.453-.634-.078-1.589.293-2.275a1.222,1.222,0,0,1,2.015.138,2.1,2.1,0,0,1-.344,2.283,2.816,2.816,0,0,0-.7,1.062c-.158.75.553,1.374,1.184,1.811l3.008,2.082a1.786,1.786,0,0,1-1.414,1.366c-.671.189-1.388.181-2.055.4-3.209,1.071-3.2,5.834-7.407,4.9a2.027,2.027,0,0,0-2.351-2.245c-1.543.381-2.541,2.58-4.07,2.145-.532-.151-.937-.613-1.475-.741-1.486-.353-2.213,1.93-2.63,2.9-1.385,3.223.771,3.613.683,6.491-.04,1.316-1.015,2.428-1.256,3.722-.222,1.192.2,2.426.033,3.627-.444,3.3-4.814,1.3-6.751.917,1.053,1.872-.513,4.148-2.221,5.446-2.622,1.993-2.172,1.821-2.5,4.7a2.1,2.1,0,0,1-1.243,1.786c-1.255.445-2.475-.8-3.8-.924-.635-.062-1.281.137-1.91.031-1.652-.28-2.229-2.306-3.306-3.59a4.583,4.583,0,0,0-3.92-1.582,9.592,9.592,0,0,0-.01,2.561l2.778,1.716a6.286,6.286,0,0,1,2.175,1.858,5.212,5.212,0,0,0,.87,1.353c.817.694,2.04.275,3.11.2,2.594-.168,6.814,1.449,9.313,2.269,2.662.875,3.594,2.757,6.05,3.6a.786.786,0,0,1,.275,1.156,1.731,1.731,0,0,1-1.178.628,4.758,4.758,0,0,1-3.085-.507c1.222.67-2.349,3.618-3,3.764-1.059.238-2.483-.56-3.56-.616-2.672-.135-4.221.4-2.466,3.3.672,1.112,1.455,2.528.717,3.6a1.672,1.672,0,0,0-1.955.787,3.524,3.524,0,0,0-.339,2.229,2.243,2.243,0,0,0,.558,1.411,3.653,3.653,0,0,1,.617.547c.5.749-.525,1.569-1.364,1.892" transform="translate(-830.233 -138.616)" fill="#407bff" opacity="0.4" style="isolation: isolate"/>
          <path id="Path_4629" data-name="Path 4629" d="M976.982,208.6c-.831-.624-2.014-.122-2.88.453s-1.884,1.244-2.86.889q-.028-1.807-.056-3.614a.652.652,0,0,0-.835-.782l-2.327.106c-.647.711,1.156,1.58.9,2.506-.114.41-.577.588-.95.788-3.194,1.713-1.168,5.276.278,7.211,1.68,2.246,1.568,5.307,1.388,8.109a3.817,3.817,0,0,1-.954,2.763c-.746.644-1.846.6-2.8.881-1.652.48-2.823,1.943-4.37,2.705-5.406,2.66-8.969-3.126-7.209-7.685.912-2.362,1.3-1.914.781-4.439-.219-1.053.131-2.3-.965-3.014a1.931,1.931,0,0,0-2.928,1.469c-.091,1.388-.408,2.707.161,4.01-1.6-.594-3.5-.216-5.25-.216a2.293,2.293,0,0,1-3.238,2.209c.047-.788-.167-1.874-.957-1.869a1.337,1.337,0,0,0-.643.229c-.83.489-1.563,1.14-2.437,1.55-1.343.626-5.2.329-5.805,2.14-.106.319-.1.667-.231.978a1.494,1.494,0,0,1-1.793.774,2.021,2.021,0,0,1-1.306-1.569c-.089-.468-.039-.958-.162-1.42-.65-2.446-3.162-.53-4.285-1.19-.538-.316-2.757-4.489-2.805-4.994a5.64,5.64,0,0,1-4.44,2.366c-1.945-.091-2.774-1.637-3.212-3.526-.461-2-.484-4.371-.922-5.816-.234-.777-.435-1.719.114-2.315.687-.747,2.149-.461,2.648-1.344a2.836,2.836,0,0,0,.227-.933,3.568,3.568,0,0,1,4.231-2.735c.6-.391.608-1.239.643-1.953s.337-1.6,1.049-1.647c.818-.059,1.19,1.014,1.177,1.834a9.052,9.052,0,0,1-.387,2.473,2.979,2.979,0,0,0-.213,1.828,2.385,2.385,0,0,0,.935,1.036,5.466,5.466,0,0,0,3.116,1.257,2.327,2.327,0,0,0,2.382-1.974,4.751,4.751,0,0,1,.015-.914c.184-.764,1.159-1.028,1.938-.922a7.1,7.1,0,0,0,2.323.274c.77-.156,1.41-1.16.864-1.725,1.034-.362,2.513-.542,2.92.475a2.929,2.929,0,0,1,.1,1.044c.04,2.172,2.74,5.307,4.582,3.035,1.212-1.492-.875-4.209,1.3-5.438,1.039-.587,2.449-.068,3.477-.675.321-.381-.23-.9-.712-1.022a4.614,4.614,0,0,0-4.355,1.182c-.615-1.266.336-3.121-.739-4.03s-3.1.159-3.9-.981a2.249,2.249,0,0,1-.291-1.141c-.14-1.962.463-5.559-2.307-5.888a4.079,4.079,0,0,1-1-.137c-.956-.372-.948-1.71-.771-2.72,1.041-.448,2.157.323,3.158.854s2.589.618,2.931-.463c.244-.773-.362-1.741.15-2.369.238-.291.657-.4.859-.72.487-.769-.7-1.538-.907-2.424-.29-1.22,1.34-2,2.59-1.91s2.65.513,3.659-.231c.32-.235.557-.566.854-.83a5.322,5.322,0,0,1,3.471-.916c1.951-.051-2.489-8.077-2.533-8.567-.336-3.723,3.481-5.706,5.668-8.073a22.447,22.447,0,0,0,2.816-4.2,102.005,102.005,0,0,1,62.712,78.16,32.673,32.673,0,0,1,.553,4.75c-2.308-.651-5.9-2.378-8.241-.975-2.976,1.783-.823,6.2-4.253,7.5-.849-.012-.6-1.41-1.1-2.1a2.925,2.925,0,0,0-1.2-.726c-.421-.213-.828-.669-.658-1.108-.742-.583-1.765.16-2.455.805a6.145,6.145,0,0,1-2.824,1.683c-2.263.476-4.354-1.146-6.393-2.239a30.388,30.388,0,0,0-5.346-2.049c.883.053,1.329-1.168.99-1.985a9.1,9.1,0,0,0-1.672-2.04c-.958-1.164-.222-2.519-1.023-3.756-.992-1.538-2.9-2.617-3.063-4.436-.2-2.2,2.24-3.611,4.292-4.428-1.087-2.488-4.033-4.2-4.031-6.916a6.968,6.968,0,0,1,.923-2.962q1.395-2.886,2.789-5.762a3.708,3.708,0,0,0,.547-2.529c-.267-1.008-1.3-1.588-2.221-2.049l-3.019-1.515a2.255,2.255,0,0,0-1.324-.341,1.993,1.993,0,0,0-1.153.87,10.764,10.764,0,0,0-2.152,7.577,43.608,43.608,0,0,1-10.405-2.9c.37,2.062-.48,4.339.159,6.27" transform="translate(-817.67 -149.654)" fill="#407bff" opacity="0.4" style="isolation: isolate"/>
          <path id="Path_4630" data-name="Path 4630" d="M897.23,217.71a4.013,4.013,0,0,0-1.79,2.924,19.278,19.278,0,0,0,.242,2.17,1.98,1.98,0,0,1-.8,1.91c-.816.449-1.8-.109-2.559-.649a3.068,3.068,0,0,1-1.431-1.686,14.746,14.746,0,0,1,.033-1.655c-.1-1.091-1.061-1.857-1.831-2.635s-1.426-2-.819-2.913c.4-.6,1.21-.809,1.64-1.388,1.047-1.413-.846-3.389.022-4.674,1.026-1.523,3.574-.744,4.983.025a13.443,13.443,0,0,1,3.484,3.447C901.292,216.047,900.284,215.518,897.23,217.71Z" transform="translate(-821.525 -141.889)" fill="#407bff" opacity="0.4" style="isolation: isolate"/>
          <path id="Path_4631" data-name="Path 4631" d="M863.005,172.957c16.918-14.675,40.528-22.222,62.694-22.379.617,0,1.232,0,1.842,0,2.924,3.3,4.476,9.543-1.319,10.71,0,.633.362.789.681,1.294.5.794-.335,1.794-1.2,2.152-2.846,1.175-6.3,1.107-5.849,4.962.538,4.6,2.711,1.672,5.1,3.336a5.256,5.256,0,0,1,.825.952c1.014,1.164,2.795,1.155,4.336,1.053a1.763,1.763,0,0,1,1.171-2.306,2.8,2.8,0,0,0,1.067-.272c.646-.466.156-1.568-.579-1.871a22.482,22.482,0,0,0-2.346-.4c-.764-.223-1.461-1.129-1-1.775a1.393,1.393,0,0,1,.855-.469,4.328,4.328,0,0,1,3.872,1.075,1.742,1.742,0,0,1,3.371.329c.159,1.121-.612,2.648.391,3.173a2.514,2.514,0,0,0-2.5.787c-2.345,2.765-.949,9.487-7.13,8.361a23.832,23.832,0,0,0-2.95-.657,2.307,2.307,0,0,0-2.43,1.389c-1.3-1.885-4.629-1.482-5.736-3.484a2.428,2.428,0,0,1,.536-2.935,1.115,1.115,0,0,0,.36-.392c.134-.338-.169-.686-.219-1.047-.085-.628.595-1.115.678-1.744.116-.876-.9-1.435-1.757-1.657s-1.9-.536-2.075-1.4c-.06-.3,0-.605-.055-.9a1.509,1.509,0,0,0-1.33-1.072,4.431,4.431,0,0,0-1.789.268c-.4.338-.221,1.009.135,1.391a10.12,10.12,0,0,1,1.139,1.065c.163.242-.64,5.483-.245,5.346-1.874.647-5.875.742-5.069,3.543.284.988.861,2.018.494,2.98q1.976-.556,3.966-1.065c.322.425-.208,1.007-.726,1.138s-1.132.112-1.484.513a1.718,1.718,0,0,0-.3,1.061l-.2,3.653c-.074,1.322-.251,2.835-1.345,3.581-1.244.847-3,.173-4.05-.911-.251-.259-.527-.563-.887-.565a1.358,1.358,0,0,0-.836.466,5.47,5.47,0,0,1-4.755,1.442,3.566,3.566,0,0,1-2.78-3.781c.108-.655.391-1.454-.114-1.882-.3-.252-.805-.283-.938-.649-.168-.46.42-.792.812-1.084a1.967,1.967,0,0,0,.572-2.377c-.2-.406-3.855-1.907-4.422-1.63-1.3.635-1.071,4.124-1.234,5.47a1.975,1.975,0,0,1-.579,1.412c-.656.488-1.6-.02-2.111-.659s-.88-1.453-1.617-1.808a3.4,3.4,0,0,0-1.395-.239,3.6,3.6,0,0,0-2.722.671c-.316.32-.5.751-.819,1.071a2.791,2.791,0,0,1-2.9.348c-.969-.346-1.84-.945-2.833-1.209-2.113-.565-4.529.436-6.472-.566-.939-.486-1.615-1.826-.872-2.577.642-.649,2.035-.537,2.206-1.434.163-.858-1.941-2.1-2.312-2.85-.292-.595.349-1.7-.33-2.8C864.946,174.2,863.6,173.921,863.005,172.957Z" transform="translate(-825.296 -150.576)" fill="#407bff" opacity="0.4" style="isolation: isolate"/>
          <path id="Path_4632" data-name="Path 4632" d="M971.493,301.408c1.2-.807,2.551-1.27,2.97-2.923.57-2.251-.644-3.21-2.882-2.375a.977.977,0,0,1-.619.087c-.647-.207-.189-1.162.233-1.695a4.55,4.55,0,0,0,.542-4.362c-.121-.344,6.183-.488,6.879-.108,2.43,1.33.847,6.513,3.666,5.639.191-1.971.088-4.011.092-6l2.881-.11c-.717.028-.291-3.647-.047-4.049.946-1.56,3.867-.9,3.607-3.845-.33-3.73-7.555-4.489-6.69-.208a18.854,18.854,0,0,1-7.129.962c-.054.758-.1,1.523-.147,2.281a2.065,2.065,0,0,1-1.863.14,5.713,5.713,0,0,1,.415-6.3c-.826-1.263.18-2.89,1.145-4.056-2.643-1.934-1.884-6.85,1.221-7.9s6.688,2.412,5.752,5.553a7.328,7.328,0,0,1,4.092,1.872,9.576,9.576,0,0,1,7-8.637c1.935-.5,4.231-.468,5.55-1.97.59-.665.88-1.544,1.426-2.246,1.237-1.568,3.447-1.889,5.445-2q2.006-.1,4.011-.074a101.208,101.208,0,0,1-37.751,57.255,4.025,4.025,0,0,1-2.045-.3c-1.133-.609-1.485-2.04-1.717-3.308-.913-4.933-.4-8.005,3.614-11.073C971.257,301.57,971.374,301.488,971.493,301.408Z" transform="translate(-809.609 -134.23)" fill="#407bff" opacity="0.4" style="isolation: isolate"/>
        </g>
        <g id="Group_3850" data-name="Group 3850">
          <path id="Path_4633" data-name="Path 4633" d="M901.057,313.4c-1.9.184-2.753,2.518-3.14,4.42q-.861,4.284-1.729,8.569c3.481,1.632,3.191,5.875,1.569,8.754a101.159,101.159,0,0,1-67.522-94.686q-.034-5.036.413-9.942a2.541,2.541,0,0,1,.259-.143c2.756-1.3,4.931,1.054,7.009,2.383.469.3,6.529,3.245,6.608,2.426a26.71,26.71,0,0,0,.422,7.931.8.8,0,0,0,.261.527c.395.27.841-.275.985-.731.368-1.166.526-2.4.963-3.537a4.146,4.146,0,0,1,2.4-2.605c1.172-.369,2.451.066,3.668-.1a5.031,5.031,0,0,0,3.473-2.61,16.439,16.439,0,0,0,1.424-4.081c1.429,3.172,5.052,1.216,7.181,3.78.685.824,1.506,2.011,2.5,1.612.945-.38,1.053-1.993,2.063-2.118.708-.087,1.225.689,1.33,1.393a7.582,7.582,0,0,0,.288,2.106,1.859,1.859,0,0,0,2.544.781c.769-.466,1.067-1.411,1.548-2.171s1.512-1.4,2.237-.866a1.4,1.4,0,0,1,.395.49c.7,1.351-.093,2.991-1.033,4.188s-2.1,2.395-2.2,3.914a1.266,1.266,0,0,0,1.751-.368,2.142,2.142,0,0,1,.365-.593c.388-.326.963-.016,1.39.26a9.106,9.106,0,0,0,6.872,1.219q.261-4.622.521-9.245c.7-.024,1.117-.068,1.382-.785a96.307,96.307,0,0,0,6.979,6.7,1.878,1.878,0,0,1,.734.885,5.906,5.906,0,0,1-.03,1.215c.082,1.345,1.885,1.7,3.232,1.663.391.217.167.859-.224,1.077a8.736,8.736,0,0,0-1.233.513,1.716,1.716,0,0,0-.344,1.854,4.449,4.449,0,0,0,5.574,2.776,1.347,1.347,0,0,0,.677-.456c.341-.5.018-1.171-.044-1.777-.245-2.388,2.331-1.832,3.519-1.171,1.611.9,2.514,3.269,2.816,4.968.351,1.984,1.851,15.156,6.247,13.335a1.965,1.965,0,0,0,.919-.937c.635-1.2.591-2.636,1.055-3.908s1.912-2.431,3.1-1.772c.474.263.777.761,1.23,1.06,1.263.832,3.062-.168,4.438.459a12.256,12.256,0,0,1,1.646,1.271c.573.394,1.474.519,1.879-.046.453-.634-.078-1.589.293-2.275a1.222,1.222,0,0,1,2.015.138,2.1,2.1,0,0,1-.344,2.283,2.816,2.816,0,0,0-.7,1.062c-.158.75.553,1.374,1.184,1.811l3.008,2.082a1.786,1.786,0,0,1-1.414,1.366c-.671.189-1.388.181-2.055.4-3.209,1.071-3.2,5.834-7.407,4.9a2.027,2.027,0,0,0-2.351-2.245c-1.543.381-2.541,2.58-4.07,2.145-.532-.151-.937-.613-1.475-.741-1.486-.353-2.213,1.93-2.63,2.9-1.385,3.223.771,3.613.683,6.491-.04,1.316-1.015,2.428-1.256,3.722-.222,1.192.2,2.426.033,3.627-.444,3.3-4.814,1.3-6.751.917,1.053,1.872-.513,4.148-2.221,5.446-2.622,1.993-2.172,1.821-2.5,4.7a2.1,2.1,0,0,1-1.243,1.786c-1.255.445-2.475-.8-3.8-.924-.635-.062-1.281.137-1.91.031-1.652-.28-2.229-2.306-3.306-3.59a4.583,4.583,0,0,0-3.92-1.582,9.592,9.592,0,0,0-.01,2.561l2.778,1.716a6.286,6.286,0,0,1,2.175,1.858,5.212,5.212,0,0,0,.87,1.353c.817.694,2.04.275,3.11.2,2.594-.168,6.814,1.449,9.313,2.269,2.662.875,3.594,2.757,6.05,3.6a.786.786,0,0,1,.275,1.156,1.731,1.731,0,0,1-1.178.628,4.758,4.758,0,0,1-3.085-.507c1.222.67-2.349,3.618-3,3.764-1.059.238-2.483-.56-3.56-.616-2.672-.135-4.221.4-2.466,3.3.672,1.112,1.455,2.528.717,3.6a1.672,1.672,0,0,0-1.955.787,3.524,3.524,0,0,0-.339,2.229,2.243,2.243,0,0,0,.558,1.411,3.653,3.653,0,0,1,.617.547c.5.749-.525,1.569-1.364,1.892" transform="translate(-830.233 -138.616)" fill="#fff" opacity="0.7" style="isolation: isolate"/>
          <path id="Path_4634" data-name="Path 4634" d="M976.982,208.6c-.831-.624-2.014-.122-2.88.453s-1.884,1.244-2.86.889q-.028-1.807-.056-3.614a.652.652,0,0,0-.835-.782l-2.327.106c-.647.711,1.156,1.58.9,2.506-.114.41-.577.588-.95.788-3.194,1.713-1.168,5.276.278,7.211,1.68,2.246,1.568,5.307,1.388,8.109a3.817,3.817,0,0,1-.954,2.763c-.746.644-1.846.6-2.8.881-1.652.48-2.823,1.943-4.37,2.705-5.406,2.66-8.969-3.126-7.209-7.685.912-2.362,1.3-1.914.781-4.439-.219-1.053.131-2.3-.965-3.014a1.931,1.931,0,0,0-2.928,1.469c-.091,1.388-.408,2.707.161,4.01-1.6-.594-3.5-.216-5.25-.216a2.293,2.293,0,0,1-3.238,2.209c.047-.788-.167-1.874-.957-1.869a1.337,1.337,0,0,0-.643.229c-.83.489-1.563,1.14-2.437,1.55-1.343.626-5.2.329-5.805,2.14-.106.319-.1.667-.231.978a1.494,1.494,0,0,1-1.793.774,2.021,2.021,0,0,1-1.306-1.569c-.089-.468-.039-.958-.162-1.42-.65-2.446-3.162-.53-4.285-1.19-.538-.316-2.757-4.489-2.805-4.994a5.64,5.64,0,0,1-4.44,2.366c-1.945-.091-2.774-1.637-3.212-3.526-.461-2-.484-4.371-.922-5.816-.234-.777-.435-1.719.114-2.315.687-.747,2.149-.461,2.648-1.344a2.836,2.836,0,0,0,.227-.933,3.568,3.568,0,0,1,4.231-2.735c.6-.391.608-1.239.643-1.953s.337-1.6,1.049-1.647c.818-.059,1.19,1.014,1.177,1.834a9.052,9.052,0,0,1-.387,2.473,2.979,2.979,0,0,0-.213,1.828,2.385,2.385,0,0,0,.935,1.036,5.466,5.466,0,0,0,3.116,1.257,2.327,2.327,0,0,0,2.382-1.974,4.751,4.751,0,0,1,.015-.914c.184-.764,1.159-1.028,1.938-.922a7.1,7.1,0,0,0,2.323.274c.77-.156,1.41-1.16.864-1.725,1.034-.362,2.513-.542,2.92.475a2.929,2.929,0,0,1,.1,1.044c.04,2.172,2.74,5.307,4.582,3.035,1.212-1.492-.875-4.209,1.3-5.438,1.039-.587,2.449-.068,3.477-.675.321-.381-.23-.9-.712-1.022a4.614,4.614,0,0,0-4.355,1.182c-.615-1.266.336-3.121-.739-4.03s-3.1.159-3.9-.981a2.249,2.249,0,0,1-.291-1.141c-.14-1.962.463-5.559-2.307-5.888a4.079,4.079,0,0,1-1-.137c-.956-.372-.948-1.71-.771-2.72,1.041-.448,2.157.323,3.158.854s2.589.618,2.931-.463c.244-.773-.362-1.741.15-2.369.238-.291.657-.4.859-.72.487-.769-.7-1.538-.907-2.424-.29-1.22,1.34-2,2.59-1.91s2.65.513,3.659-.231c.32-.235.557-.566.854-.83a5.322,5.322,0,0,1,3.471-.916c1.951-.051-2.489-8.077-2.533-8.567-.336-3.723,3.481-5.706,5.668-8.073a22.447,22.447,0,0,0,2.816-4.2,102.005,102.005,0,0,1,62.712,78.16,32.673,32.673,0,0,1,.553,4.75c-2.308-.651-5.9-2.378-8.241-.975-2.976,1.783-.823,6.2-4.253,7.5-.849-.012-.6-1.41-1.1-2.1a2.925,2.925,0,0,0-1.2-.726c-.421-.213-.828-.669-.658-1.108-.742-.583-1.765.16-2.455.805a6.145,6.145,0,0,1-2.824,1.683c-2.263.476-4.354-1.146-6.393-2.239a30.388,30.388,0,0,0-5.346-2.049c.883.053,1.329-1.168.99-1.985a9.1,9.1,0,0,0-1.672-2.04c-.958-1.164-.222-2.519-1.023-3.756-.992-1.538-2.9-2.617-3.063-4.436-.2-2.2,2.24-3.611,4.292-4.428-1.087-2.488-4.033-4.2-4.031-6.916a6.968,6.968,0,0,1,.923-2.962q1.395-2.886,2.789-5.762a3.708,3.708,0,0,0,.547-2.529c-.267-1.008-1.3-1.588-2.221-2.049l-3.019-1.515a2.255,2.255,0,0,0-1.324-.341,1.993,1.993,0,0,0-1.153.87,10.764,10.764,0,0,0-2.152,7.577,43.608,43.608,0,0,1-10.405-2.9c.37,2.062-.48,4.339.159,6.27" transform="translate(-817.67 -149.654)" fill="#fff" opacity="0.7" style="isolation: isolate"/>
          <path id="Path_4635" data-name="Path 4635" d="M897.23,217.71a4.013,4.013,0,0,0-1.79,2.924,19.278,19.278,0,0,0,.242,2.17,1.98,1.98,0,0,1-.8,1.91c-.816.449-1.8-.109-2.559-.649a3.068,3.068,0,0,1-1.431-1.686,14.746,14.746,0,0,1,.033-1.655c-.1-1.091-1.061-1.857-1.831-2.635s-1.426-2-.819-2.913c.4-.6,1.21-.809,1.64-1.388,1.047-1.413-.846-3.389.022-4.674,1.026-1.523,3.574-.744,4.983.025a13.443,13.443,0,0,1,3.484,3.447C901.292,216.047,900.284,215.518,897.23,217.71Z" transform="translate(-821.525 -141.889)" fill="#fff" opacity="0.7" style="isolation: isolate"/>
          <path id="Path_4636" data-name="Path 4636" d="M863.005,172.957c16.918-14.675,40.528-22.222,62.694-22.379.617,0,1.232,0,1.842,0,2.924,3.3,4.476,9.543-1.319,10.71,0,.633.362.789.681,1.294.5.794-.335,1.794-1.2,2.152-2.846,1.175-6.3,1.107-5.849,4.962.538,4.6,2.711,1.672,5.1,3.336a5.256,5.256,0,0,1,.825.952c1.014,1.164,2.795,1.155,4.336,1.053a1.763,1.763,0,0,1,1.171-2.306,2.8,2.8,0,0,0,1.067-.272c.646-.466.156-1.568-.579-1.871a22.482,22.482,0,0,0-2.346-.4c-.764-.223-1.461-1.129-1-1.775a1.393,1.393,0,0,1,.855-.469,4.328,4.328,0,0,1,3.872,1.075,1.742,1.742,0,0,1,3.371.329c.159,1.121-.612,2.648.391,3.173a2.514,2.514,0,0,0-2.5.787c-2.345,2.765-.949,9.487-7.13,8.361a23.832,23.832,0,0,0-2.95-.657,2.307,2.307,0,0,0-2.43,1.389c-1.3-1.885-4.629-1.482-5.736-3.484a2.428,2.428,0,0,1,.536-2.935,1.115,1.115,0,0,0,.36-.392c.134-.338-.169-.686-.219-1.047-.085-.628.595-1.115.678-1.744.116-.876-.9-1.435-1.757-1.657s-1.9-.536-2.075-1.4c-.06-.3,0-.605-.055-.9a1.509,1.509,0,0,0-1.33-1.072,4.431,4.431,0,0,0-1.789.268c-.4.338-.221,1.009.135,1.391a10.12,10.12,0,0,1,1.139,1.065c.163.242-.64,5.483-.245,5.346-1.874.647-5.875.742-5.069,3.543.284.988.861,2.018.494,2.98q1.976-.556,3.966-1.065c.322.425-.208,1.007-.726,1.138s-1.132.112-1.484.513a1.718,1.718,0,0,0-.3,1.061l-.2,3.653c-.074,1.322-.251,2.835-1.345,3.581-1.244.847-3,.173-4.05-.911-.251-.259-.527-.563-.887-.565a1.358,1.358,0,0,0-.836.466,5.47,5.47,0,0,1-4.755,1.442,3.566,3.566,0,0,1-2.78-3.781c.108-.655.391-1.454-.114-1.882-.3-.252-.805-.283-.938-.649-.168-.46.42-.792.812-1.084a1.967,1.967,0,0,0,.572-2.377c-.2-.406-3.855-1.907-4.422-1.63-1.3.635-1.071,4.124-1.234,5.47a1.975,1.975,0,0,1-.579,1.412c-.656.488-1.6-.02-2.111-.659s-.88-1.453-1.617-1.808a3.4,3.4,0,0,0-1.395-.239,3.6,3.6,0,0,0-2.722.671c-.316.32-.5.751-.819,1.071a2.791,2.791,0,0,1-2.9.348c-.969-.346-1.84-.945-2.833-1.209-2.113-.565-4.529.436-6.472-.566-.939-.486-1.615-1.826-.872-2.577.642-.649,2.035-.537,2.206-1.434.163-.858-1.941-2.1-2.312-2.85-.292-.595.349-1.7-.33-2.8C864.946,174.2,863.6,173.921,863.005,172.957Z" transform="translate(-825.296 -150.576)" fill="#fff" opacity="0.7" style="isolation: isolate"/>
          <path id="Path_4637" data-name="Path 4637" d="M971.493,301.408c1.2-.807,2.551-1.27,2.97-2.923.57-2.251-.644-3.21-2.882-2.375a.977.977,0,0,1-.619.087c-.647-.207-.189-1.162.233-1.695a4.55,4.55,0,0,0,.542-4.362c-.121-.344,6.183-.488,6.879-.108,2.43,1.33.847,6.513,3.666,5.639.191-1.971.088-4.011.092-6l2.881-.11c-.717.028-.291-3.647-.047-4.049.946-1.56,3.867-.9,3.607-3.845-.33-3.73-7.555-4.489-6.69-.208a18.854,18.854,0,0,1-7.129.962c-.054.758-.1,1.523-.147,2.281a2.065,2.065,0,0,1-1.863.14,5.713,5.713,0,0,1,.415-6.3c-.826-1.263.18-2.89,1.145-4.056-2.643-1.934-1.884-6.85,1.221-7.9s6.688,2.412,5.752,5.553a7.328,7.328,0,0,1,4.092,1.872,9.576,9.576,0,0,1,7-8.637c1.935-.5,4.231-.468,5.55-1.97.59-.665.88-1.544,1.426-2.246,1.237-1.568,3.447-1.889,5.445-2q2.006-.1,4.011-.074a101.208,101.208,0,0,1-37.751,57.255,4.025,4.025,0,0,1-2.045-.3c-1.133-.609-1.485-2.04-1.717-3.308-.913-4.933-.4-8.005,3.614-11.073C971.257,301.57,971.374,301.488,971.493,301.408Z" transform="translate(-809.609 -134.23)" fill="#fff" opacity="0.7" style="isolation: isolate"/>
        </g>
      </g>
      <g id="Group_3852" data-name="Group 3852" opacity="0.7" style="isolation: isolate">
        <path id="Path_4638" data-name="Path 4638" d="M932.547,362.3c-3.485,0-7.019-.168-10.5-.5-2.089-.2-4.191-.459-6.251-.773a.638.638,0,0,1,.192-1.262c2.038.311,4.117.567,6.18.765a109.6,109.6,0,0,0,12.789.468.638.638,0,1,1,.026,1.276Q933.768,362.3,932.547,362.3Zm6.246-.178a.638.638,0,0,1-.037-1.275c2.113-.122,4.238-.308,6.318-.551a.639.639,0,0,1,.148,1.269c-2.1.245-4.256.433-6.393.556Zm-35.378-3.744a.664.664,0,0,1-.169-.023q-1.241-.34-2.468-.71a.638.638,0,0,1,.368-1.222q1.212.362,2.438.7a.639.639,0,0,1-.169,1.254Zm60.449-.7a.638.638,0,0,1-.184-1.248q1.212-.366,2.413-.759a.638.638,0,1,1,.4,1.212q-1.213.4-2.441.77A.647.647,0,0,1,963.865,357.683Zm14.285-5.44a.638.638,0,0,1-.269-1.217,109.055,109.055,0,0,0,16.475-9.479.638.638,0,0,1,.731,1.047,110.236,110.236,0,0,1-16.668,9.589A.621.621,0,0,1,978.15,352.243Zm-94.942-1.671a.651.651,0,0,1-.288-.068c-1.908-.968-3.806-2-5.643-3.073a.638.638,0,1,1,.643-1.1c1.815,1.059,3.691,2.08,5.577,3.034a.639.639,0,0,1-.29,1.208Zm-8.888-5.044a.638.638,0,0,1-.341-.1,109.586,109.586,0,0,1-15.292-11.662.638.638,0,1,1,.859-.942,108.4,108.4,0,0,0,15.115,11.525.638.638,0,0,1-.342,1.178Zm123.5-5.064a.638.638,0,0,1-.383-1.148c1.682-1.266,3.35-2.6,4.956-3.958a.638.638,0,1,1,.825.975c-1.625,1.376-3.313,2.724-5.015,4A.63.63,0,0,1,997.82,340.464ZM850.208,324.8a.639.639,0,0,1-.482-.22q-.841-.968-1.66-1.957a.639.639,0,0,1,.984-.816q.81.979,1.641,1.935a.639.639,0,0,1-.063.9A.63.63,0,0,1,850.208,324.8Zm166.05-1.908a.639.639,0,0,1-.491-1.046q.811-.977,1.6-1.973a.638.638,0,0,1,1,.793q-.8,1.008-1.619,2A.639.639,0,0,1,1016.258,322.9Zm8.927-12.434a.621.621,0,0,1-.334-.1.639.639,0,0,1-.209-.878,107.8,107.8,0,0,0,8.5-17,.638.638,0,0,1,1.188.468,109.158,109.158,0,0,1-8.6,17.2A.635.635,0,0,1,1025.184,310.463ZM837.7,307.124a.637.637,0,0,1-.555-.322c-1.05-1.849-2.061-3.755-3-5.666a.639.639,0,0,1,1.145-.566c.932,1.891,1.931,3.775,2.969,5.6a.638.638,0,0,1-.239.87A.628.628,0,0,1,837.7,307.124Zm-4.616-9.089a.639.639,0,0,1-.583-.376,109.254,109.254,0,0,1-6.318-18.159.638.638,0,1,1,1.237-.311,108.04,108.04,0,0,0,6.246,17.947.638.638,0,0,1-.32.843A.621.621,0,0,1,833.079,298.035Zm202-8.26a.649.649,0,0,1-.212-.036.64.64,0,0,1-.39-.816c.7-1.985,1.353-4.016,1.937-6.037a.638.638,0,1,1,1.227.353c-.59,2.046-1.25,4.1-1.96,6.111A.637.637,0,0,1,1035.075,289.775ZM824.42,267.453a.637.637,0,0,1-.633-.557q-.164-1.27-.3-2.547a.638.638,0,0,1,1.269-.135q.133,1.262.295,2.52a.638.638,0,0,1-.551.715A.668.668,0,0,1,824.42,267.453Zm216.27-2.513a.676.676,0,0,1-.068,0,.637.637,0,0,1-.567-.7q.064-.6.122-1.21.062-.658.117-1.317a.638.638,0,1,1,1.271.108c-.037.442-.076.886-.118,1.329-.039.41-.079.818-.123,1.225A.639.639,0,0,1,1040.689,264.94Zm.557-15.294a.637.637,0,0,1-.636-.617,107.967,107.967,0,0,0-2.3-18.862.638.638,0,0,1,1.249-.266,109.183,109.183,0,0,1,2.331,19.086.639.639,0,0,1-.617.659ZM823.8,245.8h-.045a.637.637,0,0,1-.591-.681q.095-1.358.225-2.721.174-1.842.409-3.664a.639.639,0,1,1,1.267.162q-.233,1.8-.405,3.622-.129,1.346-.223,2.69A.638.638,0,0,1,823.8,245.8Zm1.186-10.136a.525.525,0,0,1-.1-.009.638.638,0,0,1-.527-.733,109.656,109.656,0,0,1,4.765-18.625.638.638,0,1,1,1.2.423,108.281,108.281,0,0,0-4.71,18.409A.639.639,0,0,1,824.987,235.666Zm213.078-8.721a.638.638,0,0,1-.618-.483c-.51-2.035-1.089-4.086-1.719-6.094a.638.638,0,1,1,1.217-.383c.639,2.033,1.223,4.108,1.739,6.166a.638.638,0,0,1-.464.774A.6.6,0,0,1,1038.065,226.945Zm-203.4-21.562a.639.639,0,0,1-.572-.921q.569-1.156,1.163-2.3a.638.638,0,0,1,1.132.59q-.589,1.127-1.151,2.27A.637.637,0,0,1,834.666,205.383Zm194.357-2.23a.638.638,0,0,1-.566-.344q-.587-1.124-1.2-2.232a.639.639,0,0,1,1.118-.617q.618,1.122,1.212,2.26a.639.639,0,0,1-.566.933Zm-8.005-13.034a.637.637,0,0,1-.519-.267,109.184,109.184,0,0,0-12.363-14.438.638.638,0,1,1,.894-.911,110.529,110.529,0,0,1,12.506,14.607.637.637,0,0,1-.519,1.009Zm-174.9-3.127a.639.639,0,0,1-.5-1.029c1.3-1.686,2.669-3.358,4.068-4.967a.638.638,0,1,1,.963.838c-1.382,1.591-2.734,3.243-4.02,4.909A.636.636,0,0,1,846.121,186.991Zm6.609-7.786a.639.639,0,0,1-.467-1.074,110.413,110.413,0,0,1,14.293-12.865.638.638,0,1,1,.768,1.019A109.21,109.21,0,0,0,853.2,179,.632.632,0,0,1,852.73,179.2Zm153.072-6.241a.636.636,0,0,1-.43-.168c-1.552-1.418-3.17-2.812-4.809-4.141a.638.638,0,0,1,.8-.991c1.658,1.345,3.294,2.755,4.865,4.189a.639.639,0,0,1-.43,1.11ZM877.557,159.348a.638.638,0,0,1-.322-1.189q1.106-.647,2.229-1.269a.638.638,0,0,1,.618,1.117q-1.108.614-2.2,1.253A.632.632,0,0,1,877.557,159.348ZM985.119,158.1a.631.631,0,0,1-.31-.081q-1.111-.614-2.24-1.206a.638.638,0,1,1,.593-1.13q1.141.6,2.267,1.22a.638.638,0,0,1-.309,1.2Zm-13.891-6.45a.627.627,0,0,1-.227-.041,108.149,108.149,0,0,0-18.287-5.168.638.638,0,0,1,.238-1.254,109.429,109.429,0,0,1,18.5,5.229.638.638,0,0,1-.227,1.235Zm-73.983-1.314a.638.638,0,0,1-.207-1.242c2.017-.69,4.077-1.327,6.123-1.894a.639.639,0,0,1,.341,1.231c-2.022.559-4.057,1.189-6.05,1.871A.643.643,0,0,1,897.246,150.335Zm9.791-2.84a.638.638,0,0,1-.147-1.259,109.029,109.029,0,0,1,19.021-2.809.638.638,0,1,1,.075,1.274,107.722,107.722,0,0,0-18.8,2.776A.664.664,0,0,1,907.037,147.5Zm42.025-1.691a.727.727,0,0,1-.1-.008c-2.08-.32-4.2-.582-6.293-.782a.638.638,0,1,1,.121-1.27c2.119.2,4.262.468,6.366.792a.638.638,0,0,1-.1,1.269Zm-7.811-.918H941.2q-1.269-.105-2.531-.178a.639.639,0,0,1,.075-1.275q1.279.076,2.561.18a.639.639,0,0,1-.052,1.275Z" transform="translate(-823.163 -143.427)" fill="#fff"/>
      </g>
    </g>
    <g id="Group_3859" data-name="Group 3859" transform="translate(394.643 2494.432)">
      <g id="Group_3858" data-name="Group 3858" transform="translate(5.996 5.996)">
        <circle id="Ellipse_31" data-name="Ellipse 31" cx="37.229" cy="37.229" r="37.229" transform="matrix(0.924, -0.383, 0.383, 0.924, 0, 28.494)" fill="#407bff"/>
        <g id="Group_3854" data-name="Group 3854" transform="translate(3.925 3.924)">
          <circle id="Ellipse_32" data-name="Ellipse 32" cx="31.62" cy="31.62" r="31.62" transform="translate(0 44.718) rotate(-45)" opacity="0.2" style="isolation: isolate"/>
          <path id="Path_4639" data-name="Path 4639" d="M846.688,189.818a31.623,31.623,0,0,0-44.7,44.714,31.619,31.619,0,1,1,44.7-44.714Z" transform="translate(-779.203 -167.045)" opacity="0.2" style="isolation: isolate"/>
        </g>
        <g id="Group_3855" data-name="Group 3855" transform="translate(11.414 11.414)">
          <path id="Path_4640" data-name="Path 4640" d="M824.654,175.269A37.228,37.228,0,1,0,861.882,212.5,37.227,37.227,0,0,0,824.654,175.269Zm0,72.427a35.195,35.195,0,1,1,35.19-35.2A35.193,35.193,0,0,1,824.654,247.7Z" transform="translate(-787.426 -175.269)" opacity="0.2" style="isolation: isolate"/>
          <path id="Path_4641" data-name="Path 4641" d="M853.127,189a41.734,41.734,0,0,1,.952,5.515,35.2,35.2,0,0,1-48.113,46.893,41.23,41.23,0,0,1-5.456-1.076A37.23,37.23,0,0,0,853.127,189Z" transform="translate(-785.455 -173.201)" opacity="0.2" style="isolation: isolate"/>
        </g>
        <g id="Group_3856" data-name="Group 3856" transform="translate(33.636 34.255)">
          <path id="Path_4642" data-name="Path 4642" d="M833.434,216.02l3.317,3.2c-2.558,3.037-6.475,4.675-11.07,4.675-7.073,0-12.669-4.117-14.386-10.23h-4.555v-2.8h4.036c-.04-.441-.04-.879-.04-1.359s0-.919.04-1.359h-4.036v-2.8h4.555c1.718-6.115,7.313-10.231,14.386-10.231,4.6,0,8.512,1.64,11.07,4.676l-3.317,3.157a9.824,9.824,0,0,0-7.473-3.277,9.642,9.642,0,0,0-9.191,5.675h11.47v2.8H816.01c-.039.44-.079.879-.079,1.359s.04.918.079,1.359h12.229v2.8h-11.47a10.2,10.2,0,0,0,16.665,2.358Z" transform="translate(-806.739 -195.119)" fill="#407bff"/>
        </g>
        <g id="Group_3857" data-name="Group 3857" transform="translate(33.636 34.255)" opacity="0.2">
          <path id="Path_4643" data-name="Path 4643" d="M833.434,216.02l3.317,3.2c-2.558,3.037-6.475,4.675-11.07,4.675-7.073,0-12.669-4.117-14.386-10.23h-4.555v-2.8h4.036c-.04-.441-.04-.879-.04-1.359s0-.919.04-1.359h-4.036v-2.8h4.555c1.718-6.115,7.313-10.231,14.386-10.231,4.6,0,8.512,1.64,11.07,4.676l-3.317,3.157a9.824,9.824,0,0,0-7.473-3.277,9.642,9.642,0,0,0-9.191,5.675h11.47v2.8H816.01c-.039.44-.079.879-.079,1.359s.04.918.079,1.359h12.229v2.8h-11.47a10.2,10.2,0,0,0,16.665,2.358Z" transform="translate(-806.739 -195.119)" fill="#fff"/>
        </g>
      </g>
      <circle id="Ellipse_33" data-name="Ellipse 33" cx="43.229" cy="43.229" r="43.229" transform="matrix(0.315, -0.949, 0.949, 0.315, 0, 82.066)" fill="none" stroke="#407bff" stroke-linecap="round" stroke-linejoin="round" stroke-width="1" stroke-dasharray="5 3 15 10 2 15"/>
    </g>
    <g id="Group_3865" data-name="Group 3865" transform="translate(602.03 2560.498)">
      <g id="Group_3864" data-name="Group 3864" transform="translate(13.556 13.555)">
        <circle id="Ellipse_34" data-name="Ellipse 34" cx="37.229" cy="37.229" r="37.229" transform="translate(7.488 7.489)" fill="#407bff"/>
        <g id="Group_3860" data-name="Group 3860">
          <circle id="Ellipse_35" data-name="Ellipse 35" cx="31.62" cy="31.62" r="31.62" transform="translate(0 44.718) rotate(-45)" opacity="0.2" style="isolation: isolate"/>
          <path id="Path_4644" data-name="Path 4644" d="M1030.084,250.394a31.623,31.623,0,0,0-44.7,44.713,31.619,31.619,0,1,1,44.7-44.713Z" transform="translate(-962.599 -227.62)" opacity="0.2" style="isolation: isolate"/>
        </g>
        <g id="Group_3861" data-name="Group 3861" transform="translate(7.489 7.49)">
          <path id="Path_4645" data-name="Path 4645" d="M1008.05,235.844a37.228,37.228,0,1,0,37.228,37.228A37.226,37.226,0,0,0,1008.05,235.844Zm0,72.427a35.195,35.195,0,1,1,35.189-35.2A35.194,35.194,0,0,1,1008.05,308.271Z" transform="translate(-970.822 -235.844)" opacity="0.2" style="isolation: isolate"/>
          <path id="Path_4646" data-name="Path 4646" d="M1036.522,249.574a41.877,41.877,0,0,1,.953,5.514,35.2,35.2,0,0,1-48.113,46.894,41.279,41.279,0,0,1-5.458-1.077,37.229,37.229,0,0,0,52.618-51.331Z" transform="translate(-968.851 -233.776)" opacity="0.2" style="isolation: isolate"/>
        </g>
        <g id="Group_3862" data-name="Group 3862" transform="translate(33.547 25.935)">
          <path id="Path_4647" data-name="Path 4647" d="M1006.536,284.964v4.475h-3.277V285c-3.916-.239-7.712-1.518-9.791-3.316l1.8-4.036a15.352,15.352,0,0,0,7.992,3.037v-7.992c-4.436-1.079-9.191-2.518-9.191-8.072,0-4.077,2.957-7.633,9.191-8.233v-4.516h3.277v4.437a17.143,17.143,0,0,1,8.113,2.437l-1.638,4.036a16.524,16.524,0,0,0-6.475-2.157V268.7c4.436,1.079,9.272,2.477,9.272,8.033C1015.808,280.808,1012.81,284.324,1006.536,284.964Zm-3.277-17.1v-7.113c-2.836.44-4.035,1.878-4.035,3.636C999.224,266.3,1000.941,267.18,1003.259,267.86Zm7.433,9.232c0-1.958-1.758-2.878-4.156-3.557v7.073C1009.454,280.168,1010.692,278.809,1010.692,277.091Z" transform="translate(-993.468 -251.874)" fill="#407bff"/>
        </g>
        <g id="Group_3863" data-name="Group 3863" transform="translate(33.547 25.935)" opacity="0.2">
          <path id="Path_4648" data-name="Path 4648" d="M1006.536,284.964v4.475h-3.277V285c-3.916-.239-7.712-1.518-9.791-3.316l1.8-4.036a15.352,15.352,0,0,0,7.992,3.037v-7.992c-4.436-1.079-9.191-2.518-9.191-8.072,0-4.077,2.957-7.633,9.191-8.233v-4.516h3.277v4.437a17.143,17.143,0,0,1,8.113,2.437l-1.638,4.036a16.524,16.524,0,0,0-6.475-2.157V268.7c4.436,1.079,9.272,2.477,9.272,8.033C1015.808,280.808,1012.81,284.324,1006.536,284.964Zm-3.277-17.1v-7.113c-2.836.44-4.035,1.878-4.035,3.636C999.224,266.3,1000.941,267.18,1003.259,267.86Zm7.433,9.232c0-1.958-1.758-2.878-4.156-3.557v7.073C1009.454,280.168,1010.692,278.809,1010.692,277.091Z" transform="translate(-993.468 -251.874)" fill="#fff"/>
        </g>
      </g>
      <circle id="Ellipse_36" data-name="Ellipse 36" cx="43.229" cy="43.229" r="43.229" transform="matrix(0.46, -0.888, 0.888, 0.46, 0, 76.763)" fill="none" stroke="#407bff" stroke-linecap="round" stroke-linejoin="round" stroke-width="1" stroke-dasharray="5 3 15 10 2 15"/>
    </g>
    <g id="Group_3871" data-name="Group 3871" transform="translate(488.966 2654.12)">
      <g id="Group_3870" data-name="Group 3870" transform="translate(6.003 6.003)">
        <circle id="Ellipse_37" data-name="Ellipse 37" cx="37.229" cy="37.229" r="37.229" fill="#407bff"/>
        <g id="Group_3866" data-name="Group 3866" transform="translate(5.608 5.609)">
          <circle id="Ellipse_38" data-name="Ellipse 38" cx="31.62" cy="31.62" r="31.62" transform="translate(0.001)" opacity="0.2" style="isolation: isolate"/>
          <path id="Path_4649" data-name="Path 4649" d="M918.75,318.688a31.623,31.623,0,0,0-44.7,44.713,31.619,31.619,0,1,1,44.7-44.713Z" transform="translate(-864.362 -309.011)" opacity="0.2" style="isolation: isolate"/>
        </g>
        <g id="Group_3867" data-name="Group 3867" transform="translate(0.001 0.001)">
          <path id="Path_4650" data-name="Path 4650" d="M896.717,304.138a37.228,37.228,0,1,0,37.228,37.228A37.226,37.226,0,0,0,896.717,304.138Zm0,72.427a35.195,35.195,0,1,1,35.189-35.2A35.194,35.194,0,0,1,896.717,376.565Z" transform="translate(-859.489 -304.138)" opacity="0.2" style="isolation: isolate"/>
          <path id="Path_4651" data-name="Path 4651" d="M925.189,317.868a41.878,41.878,0,0,1,.953,5.514,35.2,35.2,0,0,1-48.113,46.894,41.279,41.279,0,0,1-5.458-1.077,37.229,37.229,0,0,0,52.618-51.331Z" transform="translate(-857.518 -302.07)" opacity="0.2" style="isolation: isolate"/>
        </g>
        <g id="Group_3868" data-name="Group 3868" transform="translate(22.463 23.242)">
          <path id="Path_4652" data-name="Path 4652" d="M897.713,339.842h6.633v2.8h-7.952v2.718h7.952v2.8h-7.952v4.157h-5.2v-4.157h-7.953v-2.8H891.2v-2.718h-7.953v-2.8h6.594l-10.83-15.506h5.515l9.39,13.428,9.391-13.428h5.235Z" transform="translate(-879.01 -324.336)" fill="#407bff"/>
        </g>
        <g id="Group_3869" data-name="Group 3869" transform="translate(22.463 23.242)" opacity="0.2">
          <path id="Path_4653" data-name="Path 4653" d="M897.713,339.842h6.633v2.8h-7.952v2.718h7.952v2.8h-7.952v4.157h-5.2v-4.157h-7.953v-2.8H891.2v-2.718h-7.953v-2.8h6.594l-10.83-15.506h5.515l9.39,13.428,9.391-13.428h5.235Z" transform="translate(-879.01 -324.336)" fill="#fff"/>
        </g>
      </g>
      <path id="Path_4654" data-name="Path 4654" d="M901.6,299.117a43.229,43.229,0,1,1-47.129,38.94A43.229,43.229,0,0,1,901.6,299.117Z" transform="translate(-854.271 -298.92)" fill="none" stroke="#407bff" stroke-linecap="round" stroke-linejoin="round" stroke-width="1" stroke-dasharray="5 3 15 10 2 15"/>
    </g>
    <g id="Group_3877" data-name="Group 3877" transform="translate(523.584 2406.572)">
      <g id="Group_3876" data-name="Group 3876" transform="translate(23.514 23.514)">
        <circle id="Ellipse_39" data-name="Ellipse 39" cx="37.229" cy="37.229" r="37.229" fill="#407bff"/>
        <g id="Group_3872" data-name="Group 3872" transform="translate(5.608 5.608)">
          <circle id="Ellipse_40" data-name="Ellipse 40" cx="31.62" cy="31.62" r="31.62" transform="translate(0.002 0)" opacity="0.2" style="isolation: isolate"/>
          <path id="Path_4655" data-name="Path 4655" d="M964.054,118.767a31.623,31.623,0,0,0-44.7,44.713,31.619,31.619,0,1,1,44.7-44.713Z" transform="translate(-909.666 -109.09)" opacity="0.2" style="isolation: isolate"/>
        </g>
        <g id="Group_3873" data-name="Group 3873" transform="translate(0.001 0.001)">
          <path id="Path_4656" data-name="Path 4656" d="M942.021,104.217a37.228,37.228,0,1,0,37.228,37.228A37.226,37.226,0,0,0,942.021,104.217Zm0,72.427a35.195,35.195,0,1,1,35.19-35.2A35.193,35.193,0,0,1,942.021,176.644Z" transform="translate(-904.793 -104.217)" opacity="0.2" style="isolation: isolate"/>
          <path id="Path_4657" data-name="Path 4657" d="M970.494,117.947a41.863,41.863,0,0,1,.952,5.514,35.2,35.2,0,0,1-48.113,46.894,41.222,41.222,0,0,1-5.456-1.077,37.229,37.229,0,0,0,52.618-51.331Z" transform="translate(-902.822 -102.149)" opacity="0.2" style="isolation: isolate"/>
        </g>
        <g id="Group_3874" data-name="Group 3874" transform="translate(24.98 23.043)">
          <path id="Path_4658" data-name="Path 4658" d="M935.894,148.259H950.32v4.355H926.5v-4.355h4.2v-7.993h-4.2v-3.277h4.2v-1.838c0-6.633,4.515-10.909,12.428-10.909A14.724,14.724,0,0,1,951,126.12l-1.639,4.237a11.76,11.76,0,0,0-6.514-1.559c-4.555,0-6.953,2.2-6.953,6.314v1.878H946v3.277H935.894Z" transform="translate(-926.502 -124.242)" fill="#407bff"/>
        </g>
        <g id="Group_3875" data-name="Group 3875" transform="translate(24.98 23.043)" opacity="0.2">
          <path id="Path_4659" data-name="Path 4659" d="M935.894,148.259H950.32v4.355H926.5v-4.355h4.2v-7.993h-4.2v-3.277h4.2v-1.838c0-6.633,4.515-10.909,12.428-10.909A14.724,14.724,0,0,1,951,126.12l-1.639,4.237a11.76,11.76,0,0,0-6.514-1.559c-4.555,0-6.953,2.2-6.953,6.314v1.878H946v3.277H935.894Z" transform="translate(-926.502 -124.242)" fill="#fff"/>
        </g>
      </g>
      <circle id="Ellipse_41" data-name="Ellipse 41" cx="43.229" cy="43.229" r="43.229" transform="matrix(0.783, -0.623, 0.623, 0.783, 0, 53.823)" fill="none" stroke="#407bff" stroke-linecap="round" stroke-linejoin="round" stroke-width="1" stroke-dasharray="5 3 15 10 2 15"/>
    </g>
    <g id="_Group_" data-name="&lt;Group&gt;" transform="translate(683.189 2494.501)">
      <path id="Path_4660" data-name="Path 4660" d="M1087.327,408.8h9.912a.716.716,0,0,1,.695.56l1.609,7.265a1.206,1.206,0,0,1-1.193,1.453c-3.207-.052-5.543-.25-9.57-.25-2.48,0-9.963.26-13.388.26s-3.872-3.384-2.47-3.695c6.289-1.37,11.022-3.27,13.036-5.075A1.972,1.972,0,0,1,1087.327,408.8Z" transform="translate(-1015.668 -122.749)" fill="#263238"/>
      <path id="Path_4661" data-name="Path 4661" d="M1050.8,408.572h9.912a.717.717,0,0,1,.695.56l1.609,7.265a1.2,1.2,0,0,1-.929,1.427,1.136,1.136,0,0,1-.265.026c-3.207-.052-5.543-.249-9.569-.249-2.481,0-9.964.259-13.389.259s-3.872-3.383-2.47-3.695c6.289-1.369,11.022-3.269,13.036-5.075A1.977,1.977,0,0,1,1050.8,408.572Z" transform="translate(-1021.171 -122.783)" fill="#263238"/>
      <path id="Path_4662" data-name="Path 4662" d="M1097.024,249.121h-43.3c-4.118,22.484-17.005,113.782-7.759,184.673h14.66s-1.358-107.664,11.586-142.456c1.489,18.62,16.623,142.384,16.623,142.384h14.925s-2.229-46.557-4.463-90.536C1097.886,315.495,1097.084,254.806,1097.024,249.121Z" transform="translate(-1020.11 -146.802)" fill="#407bff"/>
      <path id="Path_4663" data-name="Path 4663" d="M1097.024,249.121h-43.3c-4.118,22.484-17.005,113.782-7.759,184.673h14.66s-1.358-107.664,11.586-142.456c1.489,18.62,16.623,142.384,16.623,142.384h14.925s-2.229-46.557-4.463-90.536C1097.886,315.495,1097.084,254.806,1097.024,249.121Z" transform="translate(-1020.11 -146.802)" fill="#fff" opacity="0.4" style="isolation: isolate"/>
      <path id="Path_4664" data-name="Path 4664" d="M1068.936,196.393a32.168,32.168,0,0,1,16.082-.57l.984,6.752-21.167.453Z" transform="translate(-1016.774 -154.944)" fill="#263238"/>
      <g id="Group_3878" data-name="Group 3878" transform="translate(0 28.891)">
        <path id="Path_4665" data-name="Path 4665" d="M1036.224,195.994c.552-1.237,0-4.514,0-4.514s-9.208-4.829-10.681-6.005-3.132,4.145-2.21,5.26,3.683,5.26,8.288,5.26l1.289,3.59Z" transform="translate(-1023.066 -185.306)" fill="#e4897b"/>
        <path id="Path_4666" data-name="Path 4666" d="M1059.778,198.236c-3.477.834-13.264,14.558-16.677,14.183s-7.511-18.159-7.511-18.159l-5.006,1.5s2.5,22.365,8.876,25.369,21.688-9.706,21.688-9.706Z" transform="translate(-1021.934 -183.958)" fill="#263238"/>
        <path id="Path_4667" data-name="Path 4667" d="M1059.778,198.236c-3.477.834-13.264,14.558-16.677,14.183s-7.511-18.159-7.511-18.159l-5.006,1.5s2.5,22.365,8.876,25.369,21.688-9.706,21.688-9.706Z" transform="translate(-1021.934 -183.958)" fill="#fff" opacity="0.4"/>
      </g>
      <path id="Path_4668" data-name="Path 4668" d="M1057.358,210.521a75.566,75.566,0,0,1-9.033,6.088c1.323-7.308,7.813-10.472,7.813-10.472Z" transform="translate(-1019.261 -153.278)" opacity="0.2" style="isolation: isolate"/>
      <path id="Path_4669" data-name="Path 4669" d="M1069,287.831a115.94,115.94,0,0,0-4.836,18.734c-1.212-16.569,3.632-34.143,3.632-34.143Z" transform="translate(-1016.905 -143.292)" opacity="0.2" style="isolation: isolate"/>
      <g id="Group_3880" data-name="Group 3880" transform="translate(32.69 101.929)">
        <g id="Group_3879" data-name="Group 3879" transform="translate(0 0.908)">
          <path id="Path_4670" data-name="Path 4670" d="M1077.667,249.572v5.019l14.011.17v-5.189Z" transform="translate(-1047.532 -249.572)"/>
          <path id="Path_4671" data-name="Path 4671" d="M1058.5,254.323l20.5.249v-5h-20.5Z" transform="translate(-1050.419 -249.572)"/>
          <path id="Path_4672" data-name="Path 4672" d="M1058,249.572h-5.968l-.555,4.653,6.523.079Z" transform="translate(-1051.477 -249.572)"/>
        </g>
        <rect id="Rectangle_1513" data-name="Rectangle 1513" width="8.062" height="5.809" transform="translate(12.361)" fill="#fff"/>
      </g>
      <path id="Path_4673" data-name="Path 4673" d="M1051.366,241.724c0,.7.011,1.381.023,2.049.012,1.449.046,2.808.081,4.061.07,1.737.138,3.279.207,4.592.184,3.141.381,4.948.381,4.948h43.585c.174-1.647.357-3.3.531-4.948.171-1.53.332-3.073.495-4.592.148-1.358.3-2.714.448-4.061.081-.679.15-1.37.23-2.049.207-1.91.426-3.807.633-5.684.046-.379.081-.758.128-1.138.288-2.6.575-5.168.863-7.675.114-1.037.24-2.049.356-3.061.449-3.9.876-7.629,1.289-11.138.265-2.255.518-4.42.759-6.467.38-3.256.725-6.225,1.037-8.85h-45.762c-3.59,12.853-4.866,26.315-5.189,37.19q-.017.587-.035,1.138C1051.378,238.03,1051.355,239.93,1051.366,241.724Z" transform="translate(-1018.804 -154.547)" fill="#263238"/>
      <path id="Path_4674" data-name="Path 4674" d="M1083.953,202.838c-3.893,3.233-13,1.569-13,1.569s-3.468-2.3-2.187-4.038c3.4-.407,2.913-1.426,3.676-3.408a9.8,9.8,0,0,0,.513-3.834,20.262,20.262,0,0,0-.187-2.162l11.705-7.888C1082.739,188.552,1080.468,198.66,1083.953,202.838Z" transform="translate(-1016.225 -156.751)" fill="#e4897b"/>
      <path id="Path_4675" data-name="Path 4675" d="M1081.1,187.613c-.753,6.78-6.424,8.407-9.176,8.665a9.8,9.8,0,0,0,.513-3.834Z" transform="translate(-1015.707 -156.068)" opacity="0.2" style="isolation: isolate"/>
      <g id="Group_3882" data-name="Group 3882" transform="translate(50.029)">
        <path id="Path_4676" data-name="Path 4676" d="M1070.139,165.848s-4.794,9.959-.481,15.679,10.279-13.728,10.279-13.728Z" transform="translate(-1066.348 -159.347)" fill="#263238"/>
        <path id="Path_4677" data-name="Path 4677" d="M1083.405,194.742a9.918,9.918,0,0,1-12.014.334,11.047,11.047,0,0,1-4.521-6.758,11.253,11.253,0,0,1-.194-1.156c-.77-7.221,1.788-18.654,9.822-20.768a10.755,10.755,0,0,1,13.323,12.559C1088.361,186.672,1087.865,191.278,1083.405,194.742Z" transform="translate(-1066.546 -159.321)" fill="#e4897b"/>
        <path id="Path_4678" data-name="Path 4678" d="M1076.454,177.989c-.038.634-.48,1.1-.9,1.048s-.681-.616-.6-1.248.489-1.1.9-1.048S1076.532,177.347,1076.454,177.989Z" transform="translate(-1065.282 -157.706)" fill="#263238"/>
        <path id="Path_4679" data-name="Path 4679" d="M1070.223,177.183c-.038.635-.49,1.1-.9,1.048s-.681-.616-.6-1.247.489-1.1.9-1.048S1070.3,176.581,1070.223,177.183Z" transform="translate(-1066.22 -157.828)" fill="#263238"/>
        <path id="Path_4680" data-name="Path 4680" d="M1072.457,177.546a22.74,22.74,0,0,1-3.732,5.035,3.705,3.705,0,0,0,2.976.963Z" transform="translate(-1066.217 -157.584)" fill="#de5753"/>
        <path id="Path_4681" data-name="Path 4681" d="M1068.1,174.315a.39.39,0,0,0,.391.016,3.026,3.026,0,0,1,2.708-.159.373.373,0,0,0,.354-.657h0a3.722,3.722,0,0,0-3.416.155.372.372,0,0,0-.163.5l0,.008A.55.55,0,0,0,1068.1,174.315Z" transform="translate(-1066.337 -158.243)" fill="#263238"/>
        <path id="Path_4682" data-name="Path 4682" d="M1078.225,175.754a.366.366,0,0,0,.217-.045.373.373,0,0,0,.04-.526l-.006-.007a3.723,3.723,0,0,0-3.172-1.3.372.372,0,0,0-.314.425h0a.381.381,0,0,0,.425.314h0a3.026,3.026,0,0,1,2.5,1.072A.386.386,0,0,0,1078.225,175.754Z" transform="translate(-1065.274 -158.14)" fill="#263238"/>
        <path id="Path_4683" data-name="Path 4683" d="M1083.052,168.173l-.934,1.347c2.4,1.289,1.373,4.163.618,5.414-1.611,2.672-.776,7.408,1.108,9.572,0,0,.29-1.23,1.285-.749s-.446,6.9-3.039,9.618c0,0,3.588-2.239,6.544-8.718,2.733-5.991,3.865-11.19,3.007-13.848Z" transform="translate(-1064.235 -158.996)" fill="#263238"/>
        <path id="Path_4684" data-name="Path 4684" d="M1090.036,183.894a7.475,7.475,0,0,1-4.733,3.2c-2.571.509-3.654-1.842-2.778-4.168.8-2.058,3.1-4.876,5.6-4.31S1091.35,181.851,1090.036,183.894Z" transform="translate(-1064.183 -157.435)" fill="#e4897b"/>
        <g id="Group_3881" data-name="Group 3881" transform="translate(5.475 26.007)">
          <path id="Path_4685" data-name="Path 4685" d="M1071.3,185.236a23.411,23.411,0,0,1,1.449,3.078c.2-.038.394-.076.588-.124,2.654-.583,3.692-1.731,4.039-2.826a3.519,3.519,0,0,0,.076-1.657,3.428,3.428,0,0,0-.28-.907c-1.222,1.149-3.655,1.885-4.969,2.222C1071.656,185.169,1071.3,185.236,1071.3,185.236Z" transform="translate(-1071.304 -182.8)" fill="#263238"/>
          <path id="Path_4686" data-name="Path 4686" d="M1072.088,185.022l.45.9c2.5-.556,4.183-1.283,4.8-2.213a3.43,3.43,0,0,0-.28-.907C1075.836,183.949,1073.4,184.685,1072.088,185.022Z" transform="translate(-1071.186 -182.8)" fill="#fff"/>
          <path id="Path_4687" data-name="Path 4687" d="M1073.074,187.854c2.653-.583,3.692-1.731,4.039-2.826a8.739,8.739,0,0,0-2.819,1.232A3.276,3.276,0,0,0,1073.074,187.854Z" transform="translate(-1071.037 -182.464)" fill="#de5753"/>
        </g>
        <path id="Path_4688" data-name="Path 4688" d="M1094.013,176.869s3.918-6.117-3.366-12.641-16.876-3.794-18.907-1.062c0,0-5.813,1.278-2.93,7.044l3.829-3.008S1078.715,177.068,1094.013,176.869Z" transform="translate(-1066.325 -160.198)" fill="#263238"/>
      </g>
      <g id="Group_3883" data-name="Group 3883" transform="translate(30.232 40.879)">
        <path id="Path_4689" data-name="Path 4689" d="M1070.648,196.832s-13.341,22.226-14.706,63.279h-6.6s2.025-50.421,7.613-62.267Z" transform="translate(-1049.34 -195.558)" fill="#263238"/>
        <path id="Path_4690" data-name="Path 4690" d="M1070.648,196.832s-13.341,22.226-14.706,63.279h-6.6s2.025-50.421,7.613-62.267Z" transform="translate(-1049.34 -195.558)" fill="#fff" opacity="0.4"/>
        <path id="Path_4691" data-name="Path 4691" d="M1081.939,196.832s-3.928,56.651,11.917,70.079l4.9-4.493s-5.012-32.718-1.928-46.148,1.928-18.422,1.928-18.422Z" transform="translate(-1044.495 -195.558)" fill="#263238"/>
        <path id="Path_4692" data-name="Path 4692" d="M1096.374,241.072c.84,11.265,2.382,21.344,2.382,21.344l-4.9,4.5a22.09,22.09,0,0,1-5.4-7.583c-9.458-20.148-6.524-62.5-6.524-62.5l16.822,1.013s.886,3.809-.943,13.739c-.265,1.427-.587,2.992-.978,4.695a49.454,49.454,0,0,0-.966,9.481c-.127,4.787.115,10.172.506,15.3C1096.362,241.061,1096.362,241.061,1096.374,241.072Z" transform="translate(-1044.495 -195.559)" fill="#fff" opacity="0.4"/>
        <path id="Path_4693" data-name="Path 4693" d="M1082.627,195.725l9.556,8.422-8.648,5.159,5.462,1.365-6.37,22.2S1078.307,203.919,1082.627,195.725Z" transform="translate(-1044.615 -195.725)" fill="#263238"/>
        <path id="Path_4694" data-name="Path 4694" d="M1069.992,196.22l-12.169,7.7,5.059,5.353-4.318,1.482-.532,19.664S1063.968,206.435,1069.992,196.22Z" transform="translate(-1048.062 -195.65)" fill="#263238"/>
        <path id="Path_4695" data-name="Path 4695" d="M1096.326,209.948c-.265,1.427-.587,2.992-.978,4.695a49.454,49.454,0,0,0-.966,9.481c-4.453-7.111-2.658-16.454-2.658-16.454S1093.565,208.533,1096.326,209.948Z" transform="translate(-1043.009 -193.926)" opacity="0.2" style="isolation: isolate"/>
        <path id="Path_4696" data-name="Path 4696" d="M1097.845,256.624l-4.9,4.5a22.09,22.09,0,0,1-5.4-7.583c3.832-5.3,6.674-14.015,7.916-18.261C1096.3,246.545,1097.845,256.624,1097.845,256.624Z" transform="translate(-1043.585 -189.766)" opacity="0.2" style="isolation: isolate"/>
        <path id="Path_4697" data-name="Path 4697" d="M1082.627,195.725l9.556,8.422-8.648,5.159,5.462,1.365-6.37,22.2S1078.307,203.919,1082.627,195.725Z" transform="translate(-1044.615 -195.725)" fill="#fff" opacity="0.2"/>
        <path id="Path_4698" data-name="Path 4698" d="M1069.992,196.22l-12.169,7.7,5.059,5.353-4.318,1.482-.532,19.664S1063.968,206.435,1069.992,196.22Z" transform="translate(-1048.062 -195.65)" fill="#fff" opacity="0.2"/>
      </g>
      <g id="Group_3884" data-name="Group 3884" transform="translate(72.299 43.157)">
        <path id="Path_4699" data-name="Path 4699" d="M1097.2,197.719c4.023-.828,15.4,35.815,12.672,43.553s-19.219,26.176-19.219,26.176l-4.758-4.928s13.735-18.426,15.555-24.5-8.26-25.373-8.26-25.373a30.915,30.915,0,0,1-.826-9.2C1092.807,199.166,1097.2,197.719,1097.2,197.719Z" transform="translate(-1085.9 -197.705)" fill="#263238"/>
        <path id="Path_4700" data-name="Path 4700" d="M1097.2,197.719c4.023-.828,15.4,35.815,12.672,43.553s-19.219,26.176-19.219,26.176l-4.758-4.928s13.735-18.426,15.555-24.5-8.26-25.373-8.26-25.373a30.915,30.915,0,0,1-.826-9.2C1092.807,199.166,1097.2,197.719,1097.2,197.719Z" transform="translate(-1085.9 -197.705)" fill="#fff" opacity="0.4"/>
      </g>
    </g>
    <g id="Chart_1" data-name="Chart 1" transform="translate(317.099 2581.427)">
      <g id="Group_3893" data-name="Group 3893">
        <g id="Group_3888" data-name="Group 3888">
          <g id="Group_3885" data-name="Group 3885" transform="translate(32.213)">
            <path id="Path_4701" data-name="Path 4701" d="M132.934,159.031v7.627a22.717,22.717,0,0,1,12.94,5.359l5.392-5.392A30.3,30.3,0,0,0,132.934,159.031Z" transform="translate(-132.934 -159.031)" fill="#ebebeb"/>
          </g>
          <g id="Group_3886" data-name="Group 3886" transform="translate(0 32.212)">
            <path id="Path_4702" data-name="Path 4702" d="M135.957,205.442a22.82,22.82,0,0,1-20.9-20.9h-7.629a30.429,30.429,0,0,0,28.532,28.531Z" transform="translate(-107.425 -184.539)" fill="#ebebeb"/>
          </g>
          <g id="Group_3887" data-name="Group 3887" transform="translate(0.001)">
            <path id="Path_4703" data-name="Path 4703" d="M115.052,187.562a22.822,22.822,0,0,1,20.9-20.9v-7.627a30.428,30.428,0,0,0-28.531,28.531Z" transform="translate(-107.426 -159.031)" fill="#ebebeb"/>
            <path id="Path_4704" data-name="Path 4704" d="M115.052,187.562a22.822,22.822,0,0,1,20.9-20.9v-7.627a30.428,30.428,0,0,0-28.531,28.531Z" transform="translate(-107.426 -159.031)" fill="#ebebeb" opacity="0.2"/>
          </g>
          <path id="Path_4705" data-name="Path 4705" d="M153.869,167.106l-5.392,5.392a22.813,22.813,0,0,1-15.543,37.526v7.627a30.421,30.421,0,0,0,20.935-50.545Z" transform="translate(-100.721 -156.909)" fill="#ebebeb"/>
        </g>
        <g id="Group_3892" data-name="Group 3892">
          <g id="Group_3889" data-name="Group 3889" transform="translate(32.213)" opacity="0.8">
            <path id="Path_4706" data-name="Path 4706" d="M132.934,159.031v7.627a22.717,22.717,0,0,1,12.94,5.359l5.392-5.392A30.3,30.3,0,0,0,132.934,159.031Z" transform="translate(-132.934 -159.031)" fill="#ebebeb"/>
          </g>
          <g id="Group_3890" data-name="Group 3890" transform="translate(0 32.212)" opacity="0.6">
            <path id="Path_4707" data-name="Path 4707" d="M135.957,205.442a22.82,22.82,0,0,1-20.9-20.9h-7.629a30.429,30.429,0,0,0,28.532,28.531Z" transform="translate(-107.425 -184.539)" fill="#ebebeb"/>
          </g>
          <g id="Group_3891" data-name="Group 3891" transform="translate(0.001)" opacity="0.7">
            <path id="Path_4708" data-name="Path 4708" d="M115.052,187.562a22.822,22.822,0,0,1,20.9-20.9v-7.627a30.428,30.428,0,0,0-28.531,28.531Z" transform="translate(-107.426 -159.031)" fill="#ebebeb"/>
          </g>
          <path id="Path_4709" data-name="Path 4709" d="M153.869,167.106l-5.392,5.392a22.813,22.813,0,0,1-15.543,37.526v7.627a30.421,30.421,0,0,0,20.935-50.545Z" transform="translate(-100.721 -156.909)" fill="#ebebeb" opacity="0.5"/>
        </g>
      </g>
    </g>
    <g id="Symbol" transform="translate(792.903 2437.095)">
      <g id="Group_3898" data-name="Group 3898">
        <g id="Group_3895" data-name="Group 3895">
          <path id="Path_4710" data-name="Path 4710" d="M358.537,159.12a12.249,12.249,0,1,0,12.248,12.248A12.247,12.247,0,0,0,358.537,159.12Zm0,18.368a6.124,6.124,0,1,1,6.12-6.12A6.123,6.123,0,0,1,358.537,177.488Z" transform="translate(-346.289 -159.12)" fill="#ebebeb"/>
          <path id="Path_4711" data-name="Path 4711" d="M382.994,187.578a12.248,12.248,0,1,0,12.249,12.248A12.246,12.246,0,0,0,382.994,187.578Zm0,18.368a6.124,6.124,0,1,1,6.12-6.12A6.123,6.123,0,0,1,382.994,205.946Z" transform="translate(-339.861 -151.641)" fill="#ebebeb"/>
          <g id="Group_3894" data-name="Group 3894" transform="translate(8.706 0.005)">
            <path id="Path_4712" data-name="Path 4712" d="M361.323,219.558h-8.14l28.3-60.434h8.14Z" transform="translate(-353.183 -159.124)" fill="#ebebeb"/>
          </g>
        </g>
        <g id="Group_3897" data-name="Group 3897" opacity="0.5">
          <path id="Path_4713" data-name="Path 4713" d="M358.537,159.12a12.249,12.249,0,1,0,12.248,12.248A12.247,12.247,0,0,0,358.537,159.12Zm0,18.368a6.124,6.124,0,1,1,6.12-6.12A6.123,6.123,0,0,1,358.537,177.488Z" transform="translate(-346.289 -159.12)" fill="#ebebeb"/>
          <path id="Path_4714" data-name="Path 4714" d="M382.994,187.578a12.248,12.248,0,1,0,12.249,12.248A12.246,12.246,0,0,0,382.994,187.578Zm0,18.368a6.124,6.124,0,1,1,6.12-6.12A6.123,6.123,0,0,1,382.994,205.946Z" transform="translate(-339.861 -151.641)" fill="#ebebeb"/>
          <g id="Group_3896" data-name="Group 3896" transform="translate(8.706 0.005)">
            <path id="Path_4715" data-name="Path 4715" d="M361.323,219.558h-8.14l28.3-60.434h8.14Z" transform="translate(-353.183 -159.124)" fill="#ebebeb"/>
          </g>
        </g>
      </g>
    </g>
  </g>
</svg>
